<?xml version="1.0" standalone="no"?>
<!DOCTYPE svg PUBLIC "-//W3C//DTD SVG 1.1//EN" "http://www.w3.org/Graphics/SVG/1.1/DTD/svg11.dtd" >
<svg xmlns="http://www.w3.org/2000/svg" xmlns:xlink="http://www.w3.org/1999/xlink" version="1.1">
<metadata></metadata>
<defs>
<font id="tvnorgebold" horiz-adv-x="1001" >
<font-face units-per-em="2048" ascent="1536" descent="-512" />
<missing-glyph horiz-adv-x="303" />
<glyph unicode="&#xfb01;" horiz-adv-x="1095" d="M-8 930q0 63 4.5 78.5t23.5 15.5h146v78q0 155 74 229q83 80 268 80q114 0 192 -29q19 -8 24 -23.5t5 -66.5q0 -58 -5.5 -71t-27.5 -13h-110q-119 0 -155 -19t-36 -91v-74h475q73 0 94 -6t21 -29v-954q0 -23 -21 -29t-94 -6t-93.5 6t-20.5 29v805h-361v-805 q0 -23 -20.5 -29t-93.5 -6t-94 6t-21 29v805h-146q-19 0 -23.5 14t-4.5 76z" />
<glyph unicode="&#xfb02;" horiz-adv-x="1181" d="M-8 930q0 63 4.5 78.5t23.5 15.5h146v78q0 155 74 229q83 80 268 80q114 0 192 -29q19 -8 24 -23.5t5 -66.5q0 -58 -5.5 -71t-27.5 -13h-110q-119 0 -155 -19t-36 -91v-74h240q19 0 24 -16t5 -78t-5 -76t-24 -14h-240v-805q0 -23 -20.5 -29t-93.5 -6t-94 6t-21 29v805 h-146q-19 0 -23.5 14t-4.5 76zM788 203v1155q0 23 21 29t94 6t94 -6t21 -29v-1127q0 -32 17.5 -43.5t68.5 -11.5h29q15 0 19.5 -12t4.5 -60q0 -38 -3.5 -51t-16.5 -22q-23 -15 -67 -25t-85 -10q-101 0 -149 51q-48 48 -48 156z" />
<glyph horiz-adv-x="0" />
<glyph horiz-adv-x="0" />
<glyph horiz-adv-x="682" />
<glyph unicode="&#xd;" horiz-adv-x="303" />
<glyph unicode=" "  horiz-adv-x="303" />
<glyph unicode="&#x09;" horiz-adv-x="303" />
<glyph unicode="&#xa0;" horiz-adv-x="303" />
<glyph unicode="!" horiz-adv-x="522" d="M129 119v28q0 67 26 93t91 26h30q65 0 91 -26t26 -93v-28q0 -67 -26 -93t-91 -26h-30q-65 0 -91 26t-26 93zM137 1356q-1 25 23 31t102 6t102 -6t23 -31l-33 -881q-1 -22 -18.5 -27.5t-73.5 -5.5t-73.5 5.5t-18.5 27.5z" />
<glyph unicode="&#x22;" horiz-adv-x="798" d="M104 1358q-1 22 22 28.5t95 6.5t95 -6.5t22 -28.5l-27 -438q-1 -17 -17.5 -22t-72.5 -5t-72.5 5t-17.5 22zM461 1358q-1 22 22 28.5t95 6.5t94.5 -6.5t21.5 -28.5l-26 -438q-1 -17 -17.5 -22t-72.5 -5t-73 5t-18 22z" />
<glyph unicode="#" horiz-adv-x="1181" d="M66 459v41t1.5 27.5t3 18t5 9t7.5 4t11 0.5h170v268h-168q-19 0 -24 16t-6 87v41t1.5 27.5t3 18t5 9t7.5 4t11 0.5h170v334q0 14 5.5 19t25.5 7.5t70 2.5q70 0 86 -5t16 -24v-334h248v334q0 14 5.5 19t25.5 7.5t69 2.5q70 0 86.5 -5t16.5 -24v-334h169q14 0 19 -5.5 t7.5 -25.5t2.5 -69q-1 -71 -6.5 -87t-24.5 -16h-167v-268h169q14 0 19 -5.5t7.5 -25.5t2.5 -69q-1 -71 -6.5 -87t-24.5 -16h-167v-327q0 -19 -16.5 -24t-86.5 -5q-49 0 -69 2.5t-25.5 7.5t-5.5 19v327h-248v-327q0 -19 -16 -24t-86 -5q-50 0 -70 2.5t-25.5 7.5t-5.5 19v327 h-168q-19 0 -24 16t-6 87zM467 559h248v268h-248v-268z" />
<glyph unicode="$" horiz-adv-x="1036" d="M106 1014q0 159 99.5 258.5t269.5 124.5v250q0 13 11 16.5t53 3.5q43 0 54 -3.5t11 -16.5v-242q65 -1 138.5 -13t119.5 -28q20 -7 25.5 -24t5.5 -70q0 -58 -7 -75t-30 -17h-244h-8v-387l39 -19q85 -43 139 -78.5t95.5 -81t59 -101t17.5 -128.5q0 -159 -94.5 -256.5 t-255.5 -126.5v-254q0 -13 -11 -16.5t-54 -3.5q-42 0 -53 3.5t-11 16.5v242h-8q-205 0 -313 41q-19 7 -25 26.5t-6 67.5q0 58 6 74t27 16h280h39v373l-57 28q-168 79 -240 167.5t-72 232.5zM350 1024q0 -54 28.5 -91t96.5 -75v307q-125 -29 -125 -141zM604 236 q105 39 105 137q0 49 -23.5 82t-81.5 67v-286z" />
<glyph unicode="%" horiz-adv-x="1665" d="M61 987q0 194 76 306t236 112t235.5 -112t75.5 -306t-75.5 -306t-235.5 -112t-236 112t-76 306zM256 987q0 -132 26 -190t91 -58t90.5 58t25.5 190t-25.5 190t-90.5 58t-91 -58t-26 -190zM317 23q-1 7 5 16l813 1323q12 20 34 25.5t82 5.5q99 0 100 -23q1 -7 -5 -16 l-814 -1323q-12 -20 -34 -25.5t-82 -5.5q-99 0 -99 23zM981 406q0 194 75.5 305.5t235.5 111.5t236 -111.5t76 -305.5t-76 -306t-236 -112t-235.5 112t-75.5 306zM1176 406q0 -132 25.5 -190t90.5 -58t91 58t26 190t-26 189.5t-91 57.5t-90.5 -57.5t-25.5 -189.5z" />
<glyph unicode="&#x26;" horiz-adv-x="1341" d="M61 383q0 268 261 369q-76 42 -119 112t-43 166q0 184 122.5 279.5t321.5 95.5q163 0 256 -37q19 -7 23 -22.5t4 -65.5q0 -52 -6 -66t-27 -14h-192q-132 0 -198.5 -44t-66.5 -142q0 -83 49 -129q68 -62 248 -62h529q19 0 23.5 -16t4.5 -76q0 -59 -4.5 -74.5t-23.5 -15.5 h-176v-344q0 -72 27.5 -93.5t111.5 -21.5h57q18 0 23.5 -11t5.5 -60q0 -44 -5 -58.5t-22 -23.5q-64 -33 -166 -33q-191 0 -243 147q-55 -74 -146 -114.5t-201 -40.5q-193 0 -310.5 108t-117.5 287zM309 408q0 -105 63 -163.5t171 -58.5q124 0 198 74q36 38 53 90t17 135v156 h-127q-116 0 -189 -14.5t-118 -53.5q-68 -61 -68 -165z" />
<glyph unicode="'" horiz-adv-x="442" d="M104 1358q-1 22 22 28.5t95 6.5t95 -6.5t22 -28.5l-27 -438q-1 -17 -17.5 -22t-72.5 -5t-72.5 5t-17.5 22z" />
<glyph unicode="(" horiz-adv-x="665" d="M123 512q0 264 102.5 494t282.5 383q15 12 29 12q16 0 69 -43q47 -41 47 -60q0 -9 -8 -20q-136 -182 -201 -365.5t-65 -400.5t65 -400.5t201 -365.5q8 -11 8 -20q0 -19 -47 -60q-53 -43 -69 -43q-14 0 -29 12q-180 153 -282.5 383t-102.5 494z" />
<glyph unicode=")" horiz-adv-x="665" d="M12 -274q0 9 8 20q136 182 201.5 365.5t65.5 400.5t-65.5 400.5t-201.5 365.5q-8 11 -8 20q0 19 47 60q53 43 70 43q14 0 29 -12q180 -153 282.5 -383t102.5 -494t-102.5 -494t-282.5 -383q-15 -12 -29 -12q-17 0 -70 43q-47 41 -47 60z" />
<glyph unicode="*" horiz-adv-x="868" d="M42.5 1068q-0.5 16 18.5 75q18 51 30 65.5t28 8.5l243 -105l-16 256q-1 17 15.5 21t72.5 4t72.5 -4t15.5 -21l-16 -256l244 105q15 6 27 -8.5t30 -65.5q19 -59 18.5 -75t-16.5 -21l-262 -72l182 -213q15 -13 8 -29t-49 -49q-46 -36 -65.5 -43.5t-32.5 8.5l-156 225 l-155 -225q-13 -16 -33.5 -8.5t-65.5 43.5q-42 33 -49 49t8 29l183 213l-263 72q-16 5 -16.5 21z" />
<glyph unicode="+" d="M98 700q0 61 5.5 80t25.5 19h272v272q0 20 19 25.5t80 5.5t79.5 -5.5t18.5 -25.5v-272h274q20 0 25.5 -19t5.5 -80t-5.5 -79.5t-25.5 -18.5h-274v-274q0 -20 -18.5 -25.5t-79.5 -5.5t-80 5.5t-19 25.5v274h-272q-20 0 -25.5 18.5t-5.5 79.5z" />
<glyph unicode="," horiz-adv-x="452" d="M94 123v22q0 67 27 94t92 27h31q64 0 89 -27t25 -96v-12q0 -104 -28 -211.5t-70 -157.5q-10 -11 -25 -11.5t-45 7.5q-33 9 -39.5 16.5t-0.5 26.5q37 113 43 197l-35 14q-37 15 -50.5 39t-13.5 72z" />
<glyph unicode="-" horiz-adv-x="759" d="M82 510q0 61 5.5 79.5t25.5 18.5h534q20 0 25.5 -18.5t5.5 -79.5t-5.5 -79.5t-25.5 -18.5h-534q-20 0 -25.5 18.5t-5.5 79.5z" />
<glyph unicode="." horiz-adv-x="452" d="M94 119v28q0 67 26 93t91 26h31q65 0 90.5 -26t25.5 -93v-28q0 -67 -25.5 -93t-90.5 -26h-31q-65 0 -91 26t-26 93z" />
<glyph unicode="/" horiz-adv-x="788" d="M35 35l491 1323q7 21 31.5 28t91.5 7q71 0 91.5 -6.5t13.5 -28.5l-492 -1323q-7 -21 -31.5 -28t-91.5 -7q-71 0 -91 6.5t-13 28.5z" />
<glyph unicode="0" horiz-adv-x="1179" d="M86 696q0 358 118 533.5t386 175.5q267 0 385.5 -176t118.5 -533q0 -358 -118.5 -533t-385.5 -175q-269 0 -386.5 174.5t-117.5 533.5zM338 696q0 -263 54 -377t198 -114t198 114t54 377q0 261 -54 375.5t-198 114.5t-198 -114.5t-54 -375.5z" />
<glyph unicode="1" horiz-adv-x="868" d="M61 1260q0 49 6 66t29 24q130 43 336 43h53q71 0 91 -7t20 -30v-1157h195q20 0 26 -18.5t6 -82.5t-6 -81t-26 -17h-695q-21 0 -27 17.5t-6 80.5q0 64 6.5 82.5t26.5 18.5h264v970h-264q-22 0 -28.5 16.5t-6.5 74.5z" />
<glyph unicode="2" horiz-adv-x="1003" d="M70 106v5q0 55 7 78t32 51l333 364q104 114 151.5 196t47.5 171q0 91 -51 139q-75 72 -305 72h-170q-20 0 -26.5 15.5t-6.5 74.5q0 52 5.5 71t25.5 25q110 37 282 37q260 0 389 -129q109 -106 109 -283q0 -142 -62.5 -254.5t-230.5 -283.5l-235 -242h522q20 0 25.5 -19 t5.5 -88t-5.5 -87.5t-25.5 -18.5h-776q-26 0 -33.5 18.5t-7.5 87.5z" />
<glyph unicode="3" horiz-adv-x="1028" d="M82 119q0 59 7 75.5t28 16.5h192q228 0 307 70q54 51 54 135q0 81 -49 127q-69 63 -248 63h-29q-19 0 -24 17.5t-5 81.5q0 66 5 83t24 17h25q60 0 109.5 9.5t91.5 31t65.5 60t23.5 91.5q0 95 -67 140q-39 25 -97 35t-157 10h-211q-21 0 -27 15t-6 73q0 55 4.5 73t26.5 25 q107 37 295 37q266 0 391 -131q92 -98 92 -254q0 -215 -190 -299q209 -90 209 -328q0 -165 -103 -268q-137 -137 -413 -137q-188 0 -295 37q-19 6 -24 23t-5 71z" />
<glyph unicode="4" horiz-adv-x="1196" d="M78 389q0 77 26 148l308 823q8 20 31 26.5t98 6.5q44 0 68 -1.5t37 -6t13.5 -11.5t-2.5 -18l-323 -864h348v348q0 23 18.5 28.5t94.5 5.5q78 0 98 -5.5t20 -28.5v-348h181q20 0 25 -18t5 -87q0 -67 -5 -84.5t-25 -17.5h-181v-250q0 -23 -20.5 -29t-97.5 -6q-75 0 -94 6 t-19 29v250h-561q-27 0 -35 19t-8 85z" />
<glyph unicode="5" horiz-adv-x="1052" d="M123 119q0 59 7 75.5t28 16.5h219q194 0 270 70q60 54 60 151q0 90 -50 143q-69 72 -276 72h-123q-135 0 -135 92q0 23 6 70l74 547q3 24 18.5 30.5t71.5 6.5h565q20 0 25.5 -19t5.5 -88t-5.5 -87.5t-25.5 -18.5h-461l-43 -330h56q329 0 456 -135q92 -100 92 -273 q0 -147 -68 -250.5t-183 -153.5t-267 -50q-174 0 -286 41q-20 7 -25.5 24.5t-5.5 65.5z" />
<glyph unicode="6" horiz-adv-x="1120" d="M90 649q0 182 44 326t124 238t190.5 143t243.5 49q131 0 234 -39q20 -7 25 -23.5t5 -72.5q0 -58 -6 -73t-28 -15h-179q-191 0 -282 -88q-89 -89 -113 -287q137 70 283 70q196 0 310 -115t114 -316q0 -209 -130 -333.5t-337 -124.5q-129 0 -225.5 48t-155.5 136.5 t-88 207.5t-29 269zM340 614q9 -417 252 -417q102 0 159.5 66t57.5 171q0 246 -223 246q-114 0 -246 -66z" />
<glyph unicode="7" horiz-adv-x="937" d="M33 1286q0 68 6 87.5t27 19.5h794q27 0 36 -21.5t9 -87.5v-8q0 -82 -35 -162l-469 -1073q-12 -27 -37 -34t-110 -7q-109 0 -120 18q-5 9 3 27l518 1135h-589q-21 0 -27 19t-6 87z" />
<glyph unicode="8" horiz-adv-x="1101" d="M74 371q0 116 60.5 202t166.5 138q-87 58 -134.5 131.5t-47.5 179.5q0 172 123.5 277.5t310.5 105.5q190 0 312 -98t122 -265q0 -200 -207 -315q117 -64 182.5 -144.5t65.5 -203.5q0 -177 -131.5 -284t-345.5 -107q-220 0 -348.5 103t-128.5 280zM319 387 q0 -92 65 -144.5t173 -52.5q101 0 163 48.5t62 126.5q0 40 -15 69.5t-56 60t-91.5 56t-144.5 67.5q-156 -92 -156 -231zM360 1042q0 -40 18 -74t55 -62t74.5 -48.5t94.5 -46.5q156 94 156 217q0 84 -53 130t-144 46q-87 0 -144 -43.5t-57 -118.5z" />
<glyph unicode="9" horiz-adv-x="1120" d="M66 946q0 210 129.5 334.5t336.5 124.5q129 0 226 -48t155.5 -137t87.5 -208t29 -269q0 -182 -44 -326t-124 -237.5t-190.5 -142.5t-243.5 -49q-130 0 -233 39q-20 8 -25.5 24.5t-5.5 71.5q0 57 6.5 72.5t28.5 15.5h178q191 0 282 88q89 89 113 287q-137 -70 -283 -70 q-196 0 -309.5 114.5t-113.5 315.5zM311 958q0 -245 224 -245q115 0 245 65q-9 418 -252 418q-102 0 -159.5 -66t-57.5 -172z" />
<glyph unicode=":" horiz-adv-x="452" d="M94 119v28q0 67 26 93t91 26h31q65 0 90.5 -26t25.5 -93v-28q0 -67 -25.5 -93t-90.5 -26h-31q-65 0 -91 26t-26 93zM94 877v28q0 67 26 93t91 26h31q65 0 90.5 -26t25.5 -93v-28q0 -67 -25.5 -93t-90.5 -26h-31q-65 0 -91 26t-26 93z" />
<glyph unicode=";" horiz-adv-x="452" d="M94 123v22q0 67 27 94t92 27h31q64 0 89 -27t25 -96v-12q0 -104 -28 -211.5t-70 -157.5q-10 -11 -25 -11.5t-45 7.5q-33 9 -39.5 16.5t-0.5 26.5q37 113 43 197l-35 14q-37 15 -50.5 39t-13.5 72zM94 877v28q0 67 26 93t91 26h31q65 0 90.5 -26t25.5 -93v-28 q0 -67 -25.5 -93t-90.5 -26h-31q-65 0 -91 26t-26 93z" />
<glyph unicode="&#x3c;" d="M98 702q0 54 4.5 71.5t22.5 27.5l666 362q12 6 20 6q21 0 59 -75q31 -67 31 -82q0 -17 -18 -27l-527 -283l527 -282q18 -10 18 -27q0 -15 -31 -82q-38 -75 -59 -75q-8 0 -20 6l-666 362q-18 10 -22.5 27t-4.5 71z" />
<glyph unicode="=" d="M98 483q0 61 5.5 80t25.5 19h743q20 0 25.5 -19t5.5 -80t-5.5 -79.5t-25.5 -18.5h-743q-20 0 -25.5 18.5t-5.5 79.5zM98 918q0 61 5.5 79.5t25.5 18.5h743q20 0 25.5 -18.5t5.5 -79.5t-5.5 -80t-25.5 -19h-743q-20 0 -25.5 19t-5.5 80z" />
<glyph unicode="&#x3e;" d="M100 393q0 16 19 27l526 282l-526 283q-19 11 -19 27q0 15 31 82q38 75 59 75q9 0 21 -6l666 -362q18 -10 22 -27t4 -72t-4 -71.5t-22 -26.5l-666 -362q-12 -6 -21 -6q-21 0 -59 75q-31 67 -31 82z" />
<glyph unicode="?" horiz-adv-x="882" d="M74 1272q0 51 5 69t25 25q107 39 275 39q221 0 334 -107q100 -89 100 -245q0 -123 -52 -202.5t-188 -184.5l-63 -50q-37 -28 -46 -53.5t-9 -91.5q0 -20 -15.5 -26.5t-72.5 -6.5q-55 0 -74 5.5t-29 25.5q-28 58 -28 125q0 51 22 87.5t76 78.5l69 55q91 72 126.5 119.5 t35.5 101.5q0 70 -49 105q-61 43 -219 43h-186q-23 0 -30 15.5t-7 72.5zM231 119v28q0 67 26 93t91 26h31q65 0 91 -26t26 -93v-28q0 -67 -26 -93t-91 -26h-31q-65 0 -91 26t-26 93z" />
<glyph unicode="@" horiz-adv-x="1572" d="M72 690q0 153 52.5 285t146.5 227t231 149t299 54q315 0 507.5 -180t192.5 -465q0 -206 -82.5 -323.5t-238.5 -117.5q-77 0 -132.5 26.5t-78.5 68.5q-76 -95 -224 -95q-117 0 -189.5 66.5t-72.5 175.5q0 125 83.5 178.5t244.5 53.5h100q0 66 -30.5 88t-116.5 22h-176 q-16 0 -21.5 12.5t-5.5 53.5q0 42 3.5 55.5t21.5 19.5q83 27 198 27q158 0 234 -63.5t76 -212.5v-193q0 -65 18.5 -97t69.5 -32q123 0 123 246q0 238 -132.5 373t-369.5 135q-240 0 -379 -143.5t-139 -383.5q0 -268 157.5 -402t497.5 -134h317q16 0 21.5 -12.5t5.5 -53.5 q0 -42 -4.5 -54t-19.5 -17q-137 -39 -332 -39q-96 0 -177.5 8t-171.5 29t-171 64t-146 106q-190 184 -190 495zM674 567q0 -44 28 -67t80 -23q71 0 100 30.5t29 94.5v53h-73q-86 0 -125 -17.5t-39 -70.5z" />
<glyph unicode="A" horiz-adv-x="1222" d="M45 43l356 1284q9 29 26 42.5t57.5 19.5t125.5 6q121 0 157 -12.5t48 -55.5l363 -1284q8 -26 -14.5 -34.5t-100.5 -8.5q-57 0 -84.5 3.5t-37 10t-13.5 21.5l-90 327h-463l-88 -327q-6 -22 -29.5 -28.5t-101.5 -6.5q-76 0 -97.5 8.5t-13.5 34.5zM432 573h348l-159 592h-29 z" />
<glyph unicode="B" horiz-adv-x="1144" d="M135 47v1305q0 24 19 32.5t88 8.5h299q253 0 366 -113q92 -89 92 -250q0 -101 -49 -174.5t-137 -114.5q122 -38 190 -123t68 -217q0 -173 -104 -274q-127 -127 -394 -127h-331q-68 0 -87.5 10.5t-19.5 36.5zM377 211h174q151 0 215 61q53 50 53 144t-57 145 q-62 53 -213 53h-172v-403zM377 821h155q120 0 175 49q53 47 53 136q0 77 -45 122q-54 54 -189 54h-149v-361z" />
<glyph unicode="C" horiz-adv-x="1042" d="M72 694q0 169 47 304.5t130.5 224t199 135.5t253.5 47q151 0 252 -43q20 -8 25.5 -23.5t5.5 -70.5q0 -61 -6 -75.5t-27 -14.5h-166q-233 0 -340 -107q-118 -115 -118 -377q0 -266 129 -381q114 -100 336 -100h163q22 0 27.5 -15t5.5 -73q0 -52 -6 -69t-25 -25 q-98 -43 -262 -43q-135 0 -247.5 44t-197 129.5t-132 221.5t-47.5 311z" />
<glyph unicode="D" horiz-adv-x="1277" d="M135 47v1299q0 27 20.5 37t90.5 10h221q198 0 335.5 -44.5t235.5 -146.5q168 -177 168 -506t-168 -506q-97 -102 -234.5 -146t-336.5 -44h-221q-70 0 -90.5 10t-20.5 37zM377 213h106q133 0 217 27.5t142 87.5q110 115 110 368q0 254 -110 369q-58 60 -142 87.5 t-217 27.5h-106v-967z" />
<glyph unicode="E" horiz-adv-x="1036" d="M133 207v1143q0 26 20 34.5t91 8.5h659q23 0 30 -21t7 -86q0 -64 -7 -85t-30 -21h-528v-367h438q23 0 30 -19t7 -83t-7 -85.5t-30 -21.5h-438v-391h571q23 0 30 -19.5t7 -84.5t-7 -87t-30 -22h-594q-129 0 -176 47q-25 25 -34 61t-9 99z" />
<glyph unicode="F" horiz-adv-x="966" d="M135 39v1311q0 26 20 34.5t91 8.5h647q23 0 30 -21t7 -86q0 -64 -7 -85t-30 -21h-516v-367h426q23 0 30 -19t7 -83t-7 -85.5t-30 -21.5h-426v-565q0 -24 -24.5 -31.5t-98.5 -7.5q-73 0 -96 7.5t-23 31.5z" />
<glyph unicode="G" horiz-adv-x="1247" d="M72 680q0 180 51 319t143 227.5t217 133.5t277 45q166 0 264 -43q20 -8 25.5 -24t5.5 -70q0 -59 -6 -74.5t-27 -15.5h-186q-144 0 -239 -30t-157 -95q-112 -118 -112 -369q0 -237 97 -358t280 -121q106 0 153 35q37 27 37 94v272h-193q-21 0 -27.5 20t-6.5 81 q0 63 6.5 82.5t27.5 19.5h388q26 0 35.5 -10.5t9.5 -38.5v-438q0 -156 -86 -236q-107 -98 -355 -98q-295 0 -458.5 184t-163.5 508z" />
<glyph unicode="H" horiz-adv-x="1318" d="M135 39v1315q0 24 23 31.5t96 7.5q74 0 98.5 -7.5t24.5 -31.5v-537h565v537q0 24 24 31.5t97 7.5t97 -7.5t24 -31.5v-1315q0 -24 -24 -31.5t-97 -7.5t-97 7.5t-24 31.5v559h-565v-559q0 -24 -24.5 -31.5t-98.5 -7.5q-73 0 -96 7.5t-23 31.5z" />
<glyph unicode="I" horiz-adv-x="794" d="M82 92q0 59 5.5 77.5t25.5 18.5h163v1016h-163q-20 0 -25.5 18.5t-5.5 77.5q0 58 5.5 75.5t25.5 17.5h569q20 0 25.5 -17.5t5.5 -75.5q0 -59 -5.5 -77.5t-25.5 -18.5h-164v-1016h164q20 0 25.5 -18.5t5.5 -77.5q0 -58 -5.5 -75t-25.5 -17h-569q-20 0 -25.5 17t-5.5 75z " />
<glyph unicode="J" horiz-adv-x="854" d="M57 125q0 58 6 73t27 15h201q117 0 155.5 37t38.5 143v961q0 24 23 31.5t96 7.5q74 0 98.5 -7.5t24.5 -31.5v-965q0 -114 -23.5 -186.5t-78.5 -124.5q-96 -90 -297 -90q-70 0 -136.5 12t-103.5 31q-21 10 -26 26.5t-5 67.5z" />
<glyph unicode="K" horiz-adv-x="1204" d="M135 39v1315q0 24 23 31.5t96 7.5q74 0 98.5 -7.5t24.5 -31.5v-541h106q93 0 148 12t92 48t54.5 89.5t29.5 147.5l31 246q3 24 22.5 30.5t93.5 6.5q77 0 96.5 -6t16.5 -31l-37 -289q-18 -140 -58 -215.5t-130 -126.5q58 -30 91.5 -80t70.5 -158l151 -444q3 -12 1.5 -20.5 t-14.5 -13.5t-36.5 -7t-65.5 -2q-84 0 -107.5 8.5t-31.5 34.5l-129 387q-16 48 -31 76.5t-33.5 49.5t-48 30t-65 12.5t-94.5 3.5h-123v-563q0 -24 -24.5 -31.5t-98.5 -7.5q-73 0 -96 7.5t-23 31.5z" />
<glyph unicode="L" horiz-adv-x="970" d="M133 207v1147q0 24 23 31.5t96 7.5q74 0 98.5 -7.5t24.5 -31.5v-1141h522q23 0 30 -19.5t7 -84.5t-7 -87t-30 -22h-545q-129 0 -176 47q-25 25 -34 61t-9 99z" />
<glyph unicode="M" horiz-adv-x="1492" d="M135 39v1315q0 25 20.5 32t96.5 7q75 0 107 -11.5t53 -42.5l342 -540l331 540q20 34 49.5 44t106.5 10q76 0 96.5 -7t20.5 -32v-1315q0 -25 -22 -32t-95 -7q-72 0 -92.5 7t-20.5 32v969l-243 -383q-16 -25 -41 -33t-99 -8t-98.5 8t-40.5 33l-241 376v-962q0 -25 -22 -32 t-95 -7q-72 0 -92.5 7t-20.5 32z" />
<glyph unicode="N" horiz-adv-x="1370" d="M135 39v1315q0 25 20.5 32t102.5 7q84 0 112 -11t54 -51l586 -946v969q0 25 19.5 32t90.5 7q72 0 93.5 -7t21.5 -32v-1315q0 -25 -20.5 -32t-102.5 -7q-85 0 -113 10t-53 49l-586 947v-967q0 -25 -21 -32t-93 -7t-91.5 7t-19.5 32z" />
<glyph unicode="O" horiz-adv-x="1306" d="M72 696q0 341 154 525t427 184t427.5 -184t154.5 -525q0 -340 -154.5 -524t-427.5 -184t-427 183.5t-154 524.5zM328 696q0 -247 78 -365t247 -118t247.5 118.5t78.5 364.5q0 247 -78.5 365.5t-247.5 118.5t-247 -118.5t-78 -365.5z" />
<glyph unicode="P" horiz-adv-x="1124" d="M135 39v1311q0 26 20 34.5t91 8.5h301q146 0 248 -30.5t174 -105.5q106 -112 106 -301q0 -195 -110 -305q-133 -133 -412 -133h-176v-479q0 -24 -24.5 -31.5t-98.5 -7.5q-73 0 -96 7.5t-23 31.5zM377 725h170q145 0 209 61q65 62 65 172q0 100 -51 154q-65 68 -240 68 h-153v-455z" />
<glyph unicode="Q" horiz-adv-x="1306" d="M72 696q0 341 154 525t427 184t427.5 -184t154.5 -525q0 -114 -16.5 -207.5t-46 -161t-61.5 -113.5t-73 -87q-30 -30 -89 -76.5t-83 -78.5t-24 -76q0 -55 40.5 -79t131.5 -24h73q22 0 27.5 -12.5t5.5 -67.5q0 -44 -4.5 -59.5t-21.5 -24.5q-74 -39 -193 -39 q-141 0 -225 69t-84 185q0 94 47 144q-267 5 -417 188.5t-150 519.5zM328 696q0 -247 78 -365t247 -118t247.5 118.5t78.5 364.5q0 247 -78.5 365.5t-247.5 118.5t-247 -118.5t-78 -365.5z" />
<glyph unicode="R" horiz-adv-x="1175" d="M135 39v1311q0 26 20 34.5t91 8.5h309q146 0 248 -30.5t174 -105.5q106 -112 106 -301q0 -261 -204 -374l219 -545q3 -11 1 -18t-16 -11.5t-38 -6t-66 -1.5q-59 0 -86 3t-36 9t-15 21l-187 489q-46 -4 -102 -4h-176v-479q0 -24 -24.5 -31.5t-98.5 -7.5q-73 0 -96 7.5 t-23 31.5zM377 725h178q145 0 209 61q65 62 65 172q0 100 -51 154q-65 68 -239 68h-162v-455z" />
<glyph unicode="S" horiz-adv-x="1028" d="M104 1014q0 185 132 288t348 103q69 0 148.5 -12t125.5 -29q20 -7 25.5 -24t5.5 -70q0 -58 -7 -75t-30 -17h-244q-136 0 -199 -36t-63 -118q0 -66 45 -109t162 -102l86 -43q86 -43 139.5 -78.5t94 -80.5t58 -100t17.5 -128q0 -97 -36.5 -173t-101.5 -124t-153 -73 t-194 -25q-205 0 -313 41q-19 7 -25 26.5t-6 67.5q0 58 6 74t27 16h280q273 0 273 160q0 64 -42.5 104.5t-162.5 97.5l-86 41q-168 79 -239 166.5t-71 231.5z" />
<glyph unicode="T" horiz-adv-x="1101" d="M29 1286q0 65 7 86t30 21h970q23 0 30 -21t7 -86q0 -64 -7 -85t-30 -21h-364v-1141q0 -24 -24.5 -31.5t-98.5 -7.5q-73 0 -96 7.5t-23 31.5v1141h-364q-23 0 -30 21t-7 85z" />
<glyph unicode="U" horiz-adv-x="1290" d="M125 410v944q0 24 23 31.5t96 7.5q74 0 98.5 -7.5t24.5 -31.5v-910q0 -75 12.5 -116.5t44.5 -67.5q58 -47 221 -47t221 47q32 26 45 68t13 116v910q0 24 24.5 31.5t98.5 7.5q73 0 95.5 -7.5t22.5 -31.5v-944q0 -112 -24.5 -184t-77.5 -122q-122 -116 -418 -116t-418 116 q-53 50 -77.5 122t-24.5 184z" />
<glyph unicode="V" horiz-adv-x="1196" d="M42.5 1373.5q1.5 7.5 15 12t37.5 6t67 1.5q80 0 105.5 -7.5t31.5 -31.5l289 -1131h28l287 1131q6 24 29 31.5t102 7.5q43 0 67 -1.5t37.5 -6t15 -12t-0.5 -19.5l-350 -1291q-7 -25 -21.5 -37t-57 -19t-126.5 -7t-126.5 7t-57 19t-21.5 37l-350 1291q-2 12 -0.5 19.5z" />
<glyph unicode="W" horiz-adv-x="1875" d="M43 1350q-5 26 15 34.5t104 8.5q58 0 85.5 -3.5t38 -11.5t13.5 -26l219 -1129h25l250 1125q6 27 34 36t119 9q88 0 117 -9.5t35 -35.5l248 -1125h26l219 1131q3 19 12 26t33.5 10t87.5 3q72 0 92.5 -7t16.5 -32l-274 -1291q-5 -26 -20 -38t-57.5 -18.5t-127.5 -6.5 q-86 0 -128.5 6.5t-58 18.5t-20.5 38l-209 963l-207 -963q-5 -26 -20 -38t-57.5 -18.5t-127.5 -6.5q-86 0 -128.5 6.5t-58 18.5t-20.5 38z" />
<glyph unicode="X" horiz-adv-x="1159" d="M51 18q-4 8 4 25l314 590q16 31 16 53q0 19 -16 51l-314 613q-13 27 8 35t97 8q84 0 112 -7t39 -28l256 -516h25l256 516q11 21 39 28t112 7q101 0 109 -18q4 -8 -4 -25l-313 -613q-17 -34 -17 -51q0 -20 17 -53l313 -590q13 -27 -8 -35t-97 -8q-84 0 -112 7t-39 28 l-254 506h-29l-254 -506q-11 -21 -39 -28t-112 -7q-101 0 -109 18z" />
<glyph unicode="Y" horiz-adv-x="1120" d="M6 1370q-1 9 13.5 14t39 7t70.5 2q80 0 108 -7.5t39 -31.5l295 -629l293 631q11 23 35.5 30t99.5 7q105 0 113 -20q3 -8 -4 -23l-426 -893v-418q0 -24 -24.5 -31.5t-98.5 -7.5q-73 0 -96 7.5t-23 31.5v422l-428 885q-5 15 -6 24z" />
<glyph unicode="Z" horiz-adv-x="1058" d="M86 102q0 54 7 83t26 61l567 934h-559q-23 0 -30 21t-7 85q0 65 7 86t30 21h801q26 0 33.5 -20t7.5 -83q0 -54 -7 -82.5t-26 -60.5l-571 -934h579q23 0 30 -21t7 -86q0 -64 -7 -85t-30 -21h-817q-26 0 -33.5 19.5t-7.5 82.5z" />
<glyph unicode="[" horiz-adv-x="595" d="M135 -330v1684q0 23 16.5 31t67.5 8h324q21 0 26.5 -19t5.5 -86q0 -68 -5.5 -87t-26.5 -19h-178v-1340h178q21 0 26.5 -19t5.5 -87q0 -67 -5.5 -86t-26.5 -19h-324q-51 0 -67.5 8t-16.5 31z" />
<glyph unicode="\" horiz-adv-x="788" d="M35 1358q-7 22 13 28.5t91 6.5q67 0 91.5 -7t31.5 -28l492 -1323q7 -22 -13.5 -28.5t-91.5 -6.5q-67 0 -91.5 7t-31.5 28z" />
<glyph unicode="]" horiz-adv-x="595" d="M20 -264q0 67 6 86.5t27 19.5h178v1340h-178q-21 0 -27 19.5t-6 86.5q0 66 6 85.5t27 19.5h324q51 0 67.5 -8t16.5 -31v-1684q0 -23 -16.5 -31t-67.5 -8h-324q-21 0 -27 19.5t-6 85.5z" />
<glyph unicode="^" d="M80.5 865.5q-10.5 15.5 3.5 33.5l317 465q12 19 30.5 24t70.5 5q51 0 69.5 -5t30.5 -24l318 -465q13 -18 3 -33.5t-63 -52.5q-56 -38 -78 -43t-30 14l-250 379l-250 -379q-8 -19 -30.5 -14t-78.5 43q-52 37 -62.5 52.5z" />
<glyph unicode="_" horiz-adv-x="1021" d="M12 -186q0 62 7 78t30 16h924q23 0 30 -16t7 -78t-7 -78.5t-30 -16.5h-924q-23 0 -30 16.5t-7 78.5z" />
<glyph unicode="`" horiz-adv-x="681" d="M96 1337q0 21 43 88q47 72 74 72q13 0 31 -14l329 -269q12 -11 9 -24t-25 -47q-24 -37 -36 -45.5t-25 0.5l-375 207q-25 14 -25 32z" />
<glyph unicode="a" horiz-adv-x="1024" d="M55 311q0 146 86 226q102 94 344 94h156v35q0 85 -35 120q-24 23 -70.5 32t-132.5 9h-206q-22 0 -28.5 16t-6.5 68q0 53 5.5 68.5t25.5 21.5q128 35 268 35q230 0 325 -98q84 -84 84 -266v-443q0 -31 16.5 -42t63.5 -11h19q15 0 20.5 -13.5t5.5 -58.5q0 -38 -4 -51.5 t-16 -21.5q-54 -35 -148 -35q-61 0 -103.5 23.5t-57.5 64.5q-96 -96 -267 -96q-154 0 -249 88.5t-95 234.5zM287 322q0 -66 43 -105t123 -39q90 0 139 43t49 156v80h-166q-109 0 -153 -41q-35 -30 -35 -94z" />
<glyph unicode="b" horiz-adv-x="1060" d="M100 356v1002q0 23 21 29t94 6t94 -6t21 -29v-184q0 -138 -19 -207q95 69 250 69q199 0 318.5 -137t119.5 -387t-118 -387t-349 -137q-233 0 -339 98q-93 87 -93 270zM330 371q0 -103 43 -140q47 -41 153 -41q129 0 181.5 77.5t52.5 244.5t-52.5 244.5t-181.5 77.5 q-106 0 -153 -41q-43 -37 -43 -140v-282z" />
<glyph unicode="c" horiz-adv-x="843" d="M61 514q0 242 136 382t354 140q132 0 217 -37q21 -9 26 -23.5t5 -66.5q0 -53 -6.5 -67.5t-28.5 -14.5h-141q-174 0 -250 -73q-72 -72 -72 -236q0 -169 78 -250q38 -38 95 -55.5t147 -17.5h147q22 0 28.5 -14t6.5 -66q0 -51 -5 -66.5t-24 -23.5q-85 -37 -217 -37 q-105 0 -194 32.5t-157 96t-106.5 165.5t-38.5 232z" />
<glyph unicode="d" horiz-adv-x="1060" d="M61 510q0 251 119.5 388.5t319.5 137.5q155 0 250 -69q-19 69 -19 207v184q0 23 21 29t94 6t94 -6t21 -29v-1002q0 -183 -93 -270q-106 -98 -340 -98q-231 0 -349 136t-118 386zM301 512q0 -167 52.5 -244.5t181.5 -77.5q106 0 153 41q43 37 43 140v282q0 103 -43 140 q-47 41 -153 41q-129 0 -181.5 -77.5t-52.5 -244.5z" />
<glyph unicode="e" d="M61 512q0 241 124 382.5t329 141.5q208 0 315 -137.5t107 -376.5q0 -54 -9 -74t-32 -20h-594q6 -113 80 -172q76 -61 237 -61h209q20 0 26.5 -15.5t6.5 -66.5t-5.5 -66.5t-23.5 -21.5q-113 -37 -260 -37q-251 0 -380.5 138.5t-129.5 385.5zM301 600h412q-3 106 -54.5 172 t-146.5 66q-94 0 -147 -61.5t-64 -176.5z" />
<glyph unicode="f" horiz-adv-x="679" d="M-8 930q0 63 4.5 78.5t23.5 15.5h146v78q0 155 74 229q83 80 268 80q114 0 192 -29q19 -8 24 -23.5t5 -66.5q0 -58 -5.5 -71t-27.5 -13h-110q-119 0 -155 -19t-36 -91v-74h240q19 0 24 -16t5 -78t-5 -76t-24 -14h-240v-805q0 -23 -20.5 -29t-93.5 -6t-94 6t-21 29v805 h-146q-19 0 -23.5 14t-4.5 76z" />
<glyph unicode="g" horiz-adv-x="1060" d="M61 514q0 249 120 385.5t349 136.5q232 0 338 -98q93 -87 93 -270v-713q0 -98 -21.5 -155.5t-65.5 -98.5q-88 -82 -260 -82q-58 0 -123.5 11t-97.5 26q-17 7 -21.5 22.5t-4.5 63.5q0 54 5 68t27 14h138q122 0 159 29q35 25 35 96q0 75 8 106q-95 -59 -237 -59 q-201 0 -321 134t-120 384zM301 516q0 -167 52 -242t182 -75q106 0 153 41q43 37 43 139v274q0 103 -43 140q-47 41 -153 41q-128 0 -181 -76t-53 -242z" />
<glyph unicode="h" horiz-adv-x="1077" d="M111 35v1323q0 23 20.5 29t93.5 6t94 -6t21 -29v-184q0 -141 -18 -207q103 69 256 69q210 0 311 -96q86 -83 86 -268v-637q0 -23 -21 -29t-94 -6t-94 6t-21 29v620q0 51 -6.5 77t-23.5 46q-38 43 -172 43t-172 -43q-18 -21 -24.5 -47t-6.5 -76v-620q0 -23 -21 -29t-94 -6 t-93.5 6t-20.5 29z" />
<glyph unicode="i" horiz-adv-x="450" d="M94 1260v26q0 67 26 93t91 26h29q65 0 90.5 -26t25.5 -93v-26q0 -67 -25.5 -93t-90.5 -26h-29q-65 0 -91 26t-26 93zM111 35v954q0 23 20.5 29t93.5 6t94 -6t21 -29v-954q0 -23 -21 -29t-94 -6t-93.5 6t-20.5 29z" />
<glyph unicode="j" horiz-adv-x="450" d="M-156 -260q0 55 6.5 70.5t28.5 15.5h76q91 0 123.5 30t32.5 121v1012q0 23 20.5 29t93.5 6t94 -6t21 -29v-1016q0 -192 -78 -276q-75 -78 -223 -78q-98 0 -170 35q-17 9 -21 25t-4 61zM94 1260v26q0 67 26 93t91 26h29q65 0 90.5 -26t25.5 -93v-26q0 -67 -25.5 -93 t-90.5 -26h-29q-65 0 -91 26t-26 93z" />
<glyph unicode="k" horiz-adv-x="991" d="M111 35v1323q0 23 20.5 29t93.5 6t94 -6t21 -29v-713h90q65 0 100 6t62.5 29.5t41 64t23.5 113.5l17 135q3 20 21.5 25.5t88.5 5.5t87.5 -6t15.5 -25l-19 -172q-12 -109 -46.5 -169t-98.5 -95q39 -20 64 -57t47 -105l116 -352q9 -27 -9.5 -35t-96.5 -8q-80 0 -102.5 7 t-28.5 28l-84 264q-34 105 -67.5 131.5t-135.5 26.5h-86v-422q0 -23 -21 -29t-94 -6t-93.5 6t-20.5 29z" />
<glyph unicode="l" horiz-adv-x="501" d="M109 203v1155q0 23 20.5 29t93.5 6t94 -6t21 -29v-1127q0 -32 17.5 -43.5t68.5 -11.5h29q15 0 19.5 -12t4.5 -60q0 -38 -3.5 -51t-16.5 -22q-23 -15 -67 -25t-85 -10q-101 0 -149 51q-47 47 -47 156z" />
<glyph unicode="m" horiz-adv-x="1679" d="M102 35v637q0 185 86 268q101 96 340 96q213 0 312 -88q99 88 311 88q239 0 340 -96q86 -83 86 -268v-637q0 -23 -21 -29t-94 -6t-93.5 6t-20.5 29v620q0 50 -6.5 76t-24.5 47q-38 43 -166 43t-166 -43q-18 -21 -24.5 -47t-6.5 -76v-620q0 -23 -20.5 -29t-93.5 -6t-94 6 t-21 29v620q0 50 -6.5 76t-24.5 47q-38 43 -166 43t-166 -43q-17 -20 -23.5 -46t-6.5 -77v-620q0 -23 -21 -29t-94 -6t-94 6t-21 29z" />
<glyph unicode="n" horiz-adv-x="1069" d="M102 35v637q0 185 86 268q101 96 342 96h9q241 0 342 -96q86 -83 86 -268v-637q0 -23 -21 -29t-94 -6t-94 6t-21 29v620q0 51 -6.5 77t-23.5 46q-38 43 -172 43q-135 0 -173 -43q-17 -20 -23.5 -46t-6.5 -77v-620q0 -23 -21 -29t-94 -6t-94 6t-21 29z" />
<glyph unicode="o" horiz-adv-x="1064" d="M61 512q0 250 123.5 387t347.5 137q225 0 348.5 -137t123.5 -387t-123.5 -387t-348.5 -137q-224 0 -347.5 137t-123.5 387zM301 512q0 -164 53 -243t178 -79t178.5 79t53.5 243t-53.5 243t-178.5 79t-178 -79t-53 -243z" />
<glyph unicode="p" horiz-adv-x="1060" d="M100 -334v1002q0 183 93 270q106 98 339 98q231 0 349 -137t118 -387t-119.5 -387t-318.5 -137q-155 0 -250 69q19 -69 19 -207v-184q0 -23 -21 -29t-94 -6t-94 6t-21 29zM330 371q0 -103 43 -140q47 -41 153 -41q129 0 181.5 77.5t52.5 244.5t-52.5 244.5t-181.5 77.5 q-106 0 -153 -41q-43 -37 -43 -140v-282z" />
<glyph unicode="q" horiz-adv-x="1060" d="M61 510q0 250 119.5 388t349.5 138q232 0 338 -98q93 -87 93 -270v-1002q0 -23 -21 -29t-94 -6t-94 6t-21 29v184q0 138 19 207q-95 -69 -250 -69q-200 0 -319.5 135.5t-119.5 386.5zM301 512q0 -167 52.5 -244.5t181.5 -77.5q106 0 153 41q43 37 43 140v282 q0 103 -43 140q-47 41 -153 41q-129 0 -181.5 -77.5t-52.5 -244.5z" />
<glyph unicode="r" horiz-adv-x="634" d="M102 35v659q0 166 76 248q88 94 264 94q108 0 179 -28q21 -9 25.5 -24t4.5 -75q0 -55 -6 -68.5t-27 -13.5h-73q-78 0 -119.5 -7t-63.5 -29q-30 -30 -30 -119v-637q0 -23 -21 -29t-94 -6t-94 6t-21 29z" />
<glyph unicode="s" horiz-adv-x="854" d="M76 733q0 82 32.5 142.5t89 94.5t123 50t144.5 16q133 0 240 -35q23 -8 28.5 -22.5t5.5 -69.5q0 -54 -6.5 -68t-30.5 -14h-235q-170 0 -170 -88q0 -40 33 -63t119 -51l57 -19q153 -50 212.5 -115t59.5 -186q0 -158 -103 -237.5t-284 -79.5q-162 0 -260 32q-22 8 -28.5 24 t-6.5 69q0 54 6 68t27 14h248q99 0 139.5 22.5t40.5 71.5q0 40 -33 64t-129 55l-63 20q-134 43 -195 112t-61 193z" />
<glyph unicode="t" horiz-adv-x="739" d="M-16 934q0 62 4.5 76t23.5 14h146v186q0 23 20.5 29t93.5 6t94 -6t21 -29v-186h240q19 0 23.5 -14t4.5 -76q0 -63 -4.5 -78.5t-23.5 -15.5h-240v-498q0 -86 31 -117q35 -35 149 -35h97q22 0 28 -14t6 -70q0 -52 -4.5 -67.5t-23.5 -22.5q-75 -28 -187 -28q-161 0 -239 75 q-86 83 -86 259v518h-146q-19 0 -23.5 15.5t-4.5 78.5z" />
<glyph unicode="u" horiz-adv-x="1064" d="M102 352v637q0 23 21 29t94 6t94 -6t21 -29v-620q0 -51 6.5 -77t23.5 -46q38 -43 170 -43t170 43q18 21 24.5 47t6.5 76v620q0 23 21 29t94 6t94 -6t21 -29v-637q0 -185 -86 -268q-101 -96 -340 -96h-9q-239 0 -340 96q-86 83 -86 268z" />
<glyph unicode="v" horiz-adv-x="960" d="M25 983q-7 26 12 33.5t94 7.5q78 0 101.5 -7.5t31.5 -33.5l215 -758h23l205 758q7 27 29 34t95 7q76 0 94.5 -8t10.5 -35l-270 -926q-9 -32 -44 -43.5t-137 -11.5q-74 0 -110.5 6t-48.5 16t-19 33z" />
<glyph unicode="w" horiz-adv-x="1550" d="M25 979q-8 28 12.5 36.5t97.5 8.5q76 0 99.5 -8t29.5 -33l185 -758h20l176 758q6 26 29 33.5t108 7.5q84 0 107 -7.5t29 -33.5l190 -758h20l175 760q6 25 25.5 32t94.5 7q68 0 89 -8t16 -29l-236 -932q-8 -31 -41.5 -43t-136.5 -12q-104 0 -136 11t-40 44l-160 656 l-147 -656q-5 -23 -19 -34t-50 -16t-109 -5q-107 0 -139.5 10.5t-41.5 44.5z" />
<glyph unicode="x" horiz-adv-x="983" d="M39 21q-2 8 6 22l238 410q16 29 16 47q0 22 -14 47l-236 434q-5 13 -6 21.5t11.5 13t35 6.5t62.5 2q79 0 102 -6t35 -29l192 -360h21l192 360q12 23 35 29t102 6q40 0 62.5 -2t35 -6.5t11.5 -13t-6 -21.5l-236 -434q-14 -25 -14 -47q0 -18 16 -47l238 -410 q16 -28 -12 -36q-24 -7 -84 -7q-78 0 -105.5 6t-38.5 25l-196 354h-21l-196 -354q-11 -19 -38.5 -25t-105.5 -6q-98 0 -102 21z" />
<glyph unicode="y" horiz-adv-x="1073" d="M102 352v637q0 23 21 29t94 6t94 -6t21 -29v-620q0 -51 6.5 -77t23.5 -46q38 -43 170 -43t170 43q18 21 24.5 47t6.5 76v620q0 23 21 29t94 6t94 -6t21 -29v-1034q0 -98 -21 -155.5t-65 -98.5q-88 -82 -261 -82q-58 0 -123.5 11t-97.5 26q-17 7 -21.5 22.5t-4.5 63.5 q0 54 5 68t27 14h138q122 0 159 29q35 25 35 96q0 75 6 98q-95 -59 -239 -59q-211 0 -312 96q-86 83 -86 268z" />
<glyph unicode="z" horiz-adv-x="903" d="M90 932q0 60 6 76t25 16h649q31 0 41 -18.5t10 -71.5v-8q0 -47 -8 -74t-31 -61l-417 -607h446q20 0 25.5 -16t5.5 -76t-5.5 -76t-25.5 -16h-668q-31 0 -40 19t-9 71v8q0 48 7.5 74t31.5 61l418 607h-430q-19 0 -25 16t-6 76z" />
<glyph unicode="{" horiz-adv-x="688" d="M45 512q0 65 5.5 84t29.5 25l37 10q80 23 110.5 55.5t30.5 106.5q0 40 -9 145t-9 156q0 148 77 219q86 80 293 80h45q21 0 27 -19.5t6 -85.5q0 -67 -6 -86.5t-27 -19.5h-71q-62 0 -87.5 -23.5t-25.5 -83.5q0 -51 9 -149t9 -152q0 -108 -56 -169.5t-167 -92.5 q111 -31 167 -92.5t56 -169.5q0 -54 -9 -152.5t-9 -148.5q0 -60 25.5 -83.5t87.5 -23.5h71q21 0 27 -19.5t6 -86.5q0 -66 -6 -85.5t-27 -19.5h-45q-207 0 -293 80q-77 71 -77 219q0 51 9 156t9 145q0 74 -30.5 106.5t-110.5 55.5l-37 10q-24 6 -29.5 25t-5.5 84z" />
<glyph unicode="|" horiz-adv-x="524" d="M147 -334v1692q0 23 21 29t94 6t94 -6t21 -29v-1692q0 -23 -21 -29t-94 -6t-94 6t-21 29z" />
<glyph unicode="}" horiz-adv-x="688" d="M0 -264q0 67 6 86.5t27 19.5h71q62 0 87.5 23.5t25.5 83.5q0 50 -9 148.5t-9 152.5q0 108 56 169.5t167 92.5q-111 31 -167 92.5t-56 169.5q0 54 9 152t9 149q0 60 -25.5 83.5t-87.5 23.5h-71q-21 0 -27 19.5t-6 86.5q0 66 6 85.5t27 19.5h45q207 0 293 -80 q78 -72 78 -219q0 -51 -9.5 -156t-9.5 -145q0 -74 30.5 -106.5t110.5 -55.5l37 -10q24 -6 29.5 -25t5.5 -84t-5.5 -84t-29.5 -25l-37 -10q-80 -23 -110.5 -55.5t-30.5 -106.5q0 -40 9.5 -145t9.5 -156q0 -147 -78 -219q-86 -80 -293 -80h-45q-21 0 -27 19.5t-6 85.5z" />
<glyph unicode="~" d="M88 614q42 100 101 152.5t143 52.5q67 0 171.5 -35.5t151.5 -35.5q37 0 64.5 17t58.5 54q5 10 23.5 8.5t56.5 -20.5q40 -20 50 -32t5 -25q-42 -100 -100.5 -152.5t-142.5 -52.5q-67 0 -172 35.5t-152 35.5q-37 0 -64.5 -17t-58.5 -54q-5 -10 -23.5 -8.5t-56.5 20.5 q-40 20 -50 32t-5 25z" />
<glyph unicode="&#xa1;" horiz-adv-x="522" d="M129 877v28q0 67 26 93t91 26h30q65 0 91 -26t26 -93v-28q0 -67 -26 -93t-91 -26h-30q-65 0 -91 26t-26 93zM137 -332l33 881q1 22 18.5 27.5t73.5 5.5t73.5 -5.5t18.5 -27.5l33 -881q1 -25 -23 -31t-102 -6t-102 6t-23 31z" />
<glyph unicode="&#xa2;" horiz-adv-x="860" d="M70 514q0 219 112.5 355.5t300.5 160.5v248q0 13 10.5 16.5t51.5 3.5q43 0 53 -3t10 -17v-244q99 -6 168 -35q21 -9 26 -23.5t5 -66.5q0 -53 -6.5 -67.5t-28.5 -14.5h-141h-23v-632h21h147q22 0 28.5 -14t6.5 -66q0 -51 -5 -66.5t-24 -23.5q-72 -29 -174 -35v-244 q0 -14 -10 -17t-53 -3q-41 0 -51.5 3.5t-10.5 16.5v248q-187 23 -300 155.5t-113 364.5zM309 518q0 -169 78 -250q36 -38 96 -57v600q-62 -17 -102 -57q-72 -72 -72 -236z" />
<glyph unicode="&#xa3;" horiz-adv-x="1075" d="M86 717q0 62 5 78t24 16h112q-28 107 -28 199q0 185 118 290q117 105 367 105q129 0 250 -37q22 -7 27.5 -24.5t5.5 -67.5q0 -60 -7 -77t-28 -17h-195q-147 0 -214.5 -41.5t-67.5 -141.5q0 -70 30 -188h291q19 0 24 -16t5 -78t-5 -76t-24 -14h-241q14 -72 14 -125 q0 -155 -158 -289h596q20 0 25.5 -19t5.5 -88t-5.5 -87.5t-25.5 -18.5h-829q-24 0 -31.5 20t-7.5 86v7q0 51 6 70.5t31 45.5q74 79 105.5 137t31.5 128q0 60 -17 133h-161q-19 0 -24 14t-5 76z" />
<glyph unicode="&#xa4;" horiz-adv-x="1179" d="M145 229q0 6 5 15l141 227q-74 90 -74 229q0 141 74 228l-141 229q-14 22 13 29q21 6 75 6q57 0 79.5 -7t32.5 -22l82 -139q74 27 158 27t155 -27l84 139q10 15 33 22t80 7q93 0 93 -20q0 -6 -5 -15l-141 -229q74 -90 74 -228q0 -135 -74 -229l141 -227q14 -22 -13 -29 q-22 -6 -75 -6q-57 0 -80 7t-33 22l-84 137q-73 -25 -155 -25q-81 0 -158 25l-82 -137q-10 -15 -32.5 -22t-79.5 -7q-93 0 -93 20zM416 700q0 -87 44.5 -134.5t129.5 -47.5t129.5 47.5t44.5 134.5t-44.5 135t-129.5 48t-129.5 -48t-44.5 -135z" />
<glyph unicode="&#xa5;" horiz-adv-x="1169" d="M31 1370q-1 9 13.5 14t39 7t70.5 2q80 0 108 -7.5t39 -31.5l295 -629l293 631q11 23 35.5 30t99.5 7q105 0 113 -20q3 -8 -4 -23l-345 -721h150q21 0 27 -15.5t6 -70.5t-6 -70.5t-27 -15.5h-231v-111h231q21 0 27 -15.5t6 -70.5t-6 -70.5t-27 -15.5h-231v-135 q0 -24 -24.5 -31.5t-98.5 -7.5q-73 0 -96 7.5t-23 31.5v135h-232q-21 0 -26.5 15.5t-5.5 70.5t5.5 70.5t26.5 15.5h232v111h-232q-21 0 -26.5 15.5t-5.5 70.5t5.5 70.5t26.5 15.5h150l-346 717q-5 15 -6 24z" />
<glyph unicode="&#xa6;" horiz-adv-x="524" d="M147 -334v668q0 23 21 29t94 6t94 -6t21 -29v-668q0 -23 -21 -29t-94 -6t-94 6t-21 29zM147 690v668q0 23 21 29t94 6t94 -6t21 -29v-668q0 -23 -21 -29t-94 -6t-94 6t-21 29z" />
<glyph unicode="&#xa7;" horiz-adv-x="886" d="M106 328q0 44 10.5 80.5t25 61.5t42.5 47t48.5 34t58.5 25t57.5 18t59.5 14q31 7 43.5 10t36 10t33.5 12.5t23 14.5t18 20t5 25q0 33 -30 53.5t-123 49.5l-62 18q-129 41 -187.5 107.5t-58.5 185.5q0 64 21 114.5t56 83t83.5 54t101 30.5t111.5 9q121 0 230 -33 q23 -7 28.5 -21t5.5 -67t-6 -66.5t-28 -13.5h-228q-78 0 -120 -18.5t-42 -65.5q0 -38 31.5 -60t114.5 -50l53 -17q149 -46 205.5 -107.5t56.5 -178.5q0 -34 -6.5 -63.5t-15 -52t-26 -42.5t-31.5 -34t-39.5 -27t-41 -20.5t-46 -16.5t-44.5 -12.5t-46 -11t-42 -9.5 q-61 -14 -92 -32t-31 -52q0 -37 30 -56.5t116 -48.5l53 -16q147 -47 204.5 -110.5t57.5 -178.5q0 -152 -98.5 -228.5t-271.5 -76.5q-148 0 -250 31q-22 8 -27.5 22.5t-5.5 65.5q0 53 5.5 66.5t25.5 13.5h237q94 0 133 21.5t39 68.5q0 38 -31 61t-122 54l-62 18 q-130 42 -188 105t-58 182z" />
<glyph unicode="&#xa8;" horiz-adv-x="681" d="M37 1239v25q0 66 25 91t88 25h30q63 0 87 -25t24 -91v-25q0 -66 -24 -91.5t-87 -25.5h-30q-63 0 -88 25.5t-25 91.5zM391 1239v25q0 66 25 91t88 25h31q63 0 86.5 -25t23.5 -91v-25q0 -66 -23.5 -91.5t-86.5 -25.5h-31q-63 0 -88 25.5t-25 91.5z" />
<glyph unicode="&#xa9;" horiz-adv-x="1556" d="M82 696q0 150 47.5 279t135 225t220 150.5t293.5 54.5t293.5 -54.5t220.5 -150t135.5 -225t47.5 -279.5t-47.5 -279t-135.5 -224.5t-220.5 -150t-293.5 -54.5t-293.5 54.5t-220 150t-135 224.5t-47.5 279zM270 696q0 -255 133 -403t375 -148t375 148t133 403t-133 403 t-375 148t-375 -148t-133 -403zM492 702q0 172 91.5 271.5t243.5 99.5q79 0 131 -24q15 -7 19 -18t4 -42q0 -42 -4.5 -52.5t-22.5 -10.5h-92q-106 0 -155.5 -53.5t-49.5 -170.5q0 -221 205 -221h96q18 0 22.5 -10.5t4.5 -52.5q0 -32 -3.5 -42.5t-18.5 -17.5 q-53 -24 -142 -24q-149 0 -239 96t-90 272z" />
<glyph unicode="&#xaa;" horiz-adv-x="688" d="M49 895q0 101 63 148t189 47h109v12q0 52 -23 69t-88 17h-156q-17 0 -21.5 11t-4.5 48q0 36 3.5 49t16.5 17q68 22 176 22q260 0 260 -219v-262q0 -16 7 -23.5t30 -7.5h13q15 0 19.5 -9.5t4.5 -45.5q0 -27 -3 -37.5t-15 -17.5q-36 -19 -86 -19q-84 0 -107 58 q-59 -62 -166 -62q-97 0 -159 55t-62 150zM211 899q0 -35 26 -55.5t70 -20.5q103 0 103 103v47h-82q-58 0 -87.5 -15.5t-29.5 -58.5z" />
<glyph unicode="&#xab;" horiz-adv-x="1423" d="M102 512q0 48 5.5 66.5t23.5 31.5l440 328q16 12 29 12q22 0 68 -57q51 -68 51 -88q0 -13 -19 -29l-360 -264l360 -264q19 -16 19 -29q0 -20 -51 -88q-46 -57 -68 -57q-13 0 -29 12l-440 328q-18 13 -23.5 31.5t-5.5 66.5zM694 512q0 48 5.5 66.5t23.5 31.5l440 328 q16 12 29 12q22 0 68 -57q51 -68 51 -88q0 -13 -19 -29l-360 -264l360 -264q19 -16 19 -29q0 -20 -51 -88q-46 -57 -68 -57q-13 0 -29 12l-440 328q-18 13 -23.5 31.5t-5.5 66.5z" />
<glyph unicode="&#xac;" d="M98 918q0 61 5.5 79.5t25.5 18.5h733q24 0 32.5 -7.5t8.5 -27.5v-563q0 -20 -18.5 -25.5t-79.5 -5.5t-79.5 5.5t-18.5 25.5v401h-578q-20 0 -25.5 19t-5.5 80z" />
<glyph unicode="&#xad;" horiz-adv-x="759" d="M82 510q0 61 5.5 79.5t25.5 18.5h534q20 0 25.5 -18.5t5.5 -79.5t-5.5 -79.5t-25.5 -18.5h-534q-20 0 -25.5 18.5t-5.5 79.5z" />
<glyph unicode="&#xae;" horiz-adv-x="1556" d="M82 696q0 150 47.5 279t135 225t220 150.5t293.5 54.5t293.5 -54.5t220.5 -150t135.5 -225t47.5 -279.5t-47.5 -279t-135.5 -224.5t-220.5 -150t-293.5 -54.5t-293.5 54.5t-220 150t-135 224.5t-47.5 279zM270 696q0 -255 133 -403t375 -148t375 148t133 403t-133 403 t-375 148t-375 -148t-133 -403zM532 365v671q0 19 13.5 25t62.5 6h144q151 0 223 -63q67 -61 67 -173q0 -125 -98 -190l111 -270q8 -21 -24 -26q-18 -3 -54 -3q-47 0 -65 5t-23 18l-88 233h-113v-233q0 -14 -15 -18.5t-63 -4.5q-47 0 -62.5 4t-15.5 19zM688 731h86 q51 0 79 26t28 77q0 98 -111 98h-82v-201z" />
<glyph unicode="&#xaf;" horiz-adv-x="681" d="M47 1276q0 58 5.5 76t23.5 18h528q18 0 23.5 -18t5.5 -76t-5 -75t-24 -17h-528q-19 0 -24 17t-5 75z" />
<glyph unicode="&#xb0;" horiz-adv-x="688" d="M53 1116q0 131 78.5 210t212.5 79t212.5 -79t78.5 -210t-78.5 -210t-212.5 -79t-212.5 79t-78.5 210zM221 1116q0 -137 123 -137t123 137t-123 137t-123 -137z" />
<glyph unicode="&#xb1;" d="M98 98q0 61 5.5 80t25.5 19h743q20 0 25.5 -19t5.5 -80t-5.5 -79.5t-25.5 -18.5h-743q-20 0 -25.5 18.5t-5.5 79.5zM98 770q0 61 5.5 79.5t25.5 18.5h272v273q0 20 18.5 25t80.5 5t80 -5t18 -25v-273h274q20 0 25.5 -18.5t5.5 -79.5t-5.5 -79.5t-25.5 -18.5h-274v-275 q0 -20 -18 -25t-80 -5t-80.5 5t-18.5 25v275h-272q-20 0 -25.5 18.5t-5.5 79.5z" />
<glyph unicode="&#xb2;" horiz-adv-x="718" d="M88 780q0 65 18 86l211 234q52 60 73.5 96.5t21.5 77.5q0 54 -29.5 75t-95.5 21h-162q-17 0 -22 12t-5 56q0 42 4 55.5t21 17.5q86 25 201 25q136 0 209 -64t73 -180q0 -79 -32.5 -140t-124.5 -153l-136 -131h281q17 0 22 -15t5 -65t-5 -65.5t-22 -15.5h-477 q-19 0 -24 13.5t-5 59.5z" />
<glyph unicode="&#xb3;" horiz-adv-x="718" d="M92 799q0 43 5 55t22 12h153q144 0 144 92q0 45 -31.5 67t-103.5 22h-41q-14 0 -20.5 16t-6.5 61q0 46 5.5 61t19.5 15h32q72 0 107 20t35 68q0 46 -30 64t-95 18h-160q-18 0 -23.5 13t-5.5 55q0 39 5 54t20 19q82 25 203 25q132 0 205 -59.5t73 -173.5q0 -119 -117 -170 q62 -29 93.5 -74.5t31.5 -116.5q0 -113 -81 -176.5t-218 -63.5q-122 0 -192 25q-18 6 -23.5 19.5t-5.5 52.5z" />
<glyph unicode="&#xb4;" horiz-adv-x="681" d="M97.5 1190q-3.5 13 8.5 24l330 269q17 14 31 14q27 0 74 -72q43 -67 43 -88q0 -18 -25 -32l-375 -207q-13 -9 -25 -0.5t-36 45.5q-22 34 -25.5 47z" />
<glyph unicode="&#xb5;" horiz-adv-x="1077" d="M111 -334v1323q0 23 20.5 29t93.5 6t94 -6t21 -29v-620q0 -50 6.5 -76t24.5 -47q38 -43 172 -43t172 43q17 20 23.5 46t6.5 77v620q0 23 21 29t94 6t94 -6t21 -29v-637q0 -185 -86 -268q-101 -96 -311 -96q-153 0 -256 69q18 -66 18 -207v-184q0 -23 -21 -29t-94 -6 t-93.5 6t-20.5 29z" />
<glyph unicode="&#xb6;" horiz-adv-x="1187" d="M70 1020q0 191 130 282t384 91h391q45 0 57 -6.5t12 -30.5v-1694q0 -19 -19 -25t-91 -6q-73 0 -93 6.5t-20 24.5v1522h-139v-1522q0 -19 -19 -25t-92 -6q-51 0 -75 3.5t-30.5 9t-6.5 18.5v956q-205 49 -297 145.5t-92 256.5z" />
<glyph unicode="&#xb7;" horiz-adv-x="452" d="M94 498v28q0 67 26 93t91 26h31q65 0 90.5 -26t25.5 -93v-28q0 -67 -25.5 -93t-90.5 -26h-31q-65 0 -91 26t-26 93z" />
<glyph unicode="&#xb8;" horiz-adv-x="681" d="M156 -338q0 37 4.5 47t21.5 10h94q80 0 80 39q0 16 -16 27t-68 31l-26 10q-46 18 -66 39.5t-20 58.5q0 43 33 90q8 12 22 16.5t51 4.5q25 0 38.5 -2.5t17.5 -6.5t2 -10q-9 -27 -9 -34q0 -14 9.5 -23.5t37.5 -21.5l21 -9q82 -33 112.5 -72.5t30.5 -105.5q0 -86 -56.5 -130 t-147.5 -44q-82 0 -144 23q-14 6 -18 17.5t-4 45.5z" />
<glyph unicode="&#xb9;" horiz-adv-x="718" d="M123 1432q0 42 3.5 54.5t20.5 16.5q92 27 211 27h29q54 0 71 -7.5t17 -29.5v-635h103q14 0 20 -15.5t6 -60.5t-6 -60t-20 -15h-422q-15 0 -21 15t-6 60t6.5 60.5t20.5 15.5h133v502h-139q-17 0 -22 13t-5 59z" />
<glyph unicode="&#xba;" horiz-adv-x="688" d="M47 1012q0 153 78.5 238t218.5 85t218.5 -85t78.5 -238t-78.5 -238.5t-218.5 -85.5t-218.5 85.5t-78.5 238.5zM213 1012q0 -94 30 -137.5t101 -43.5t101 43.5t30 137.5t-30 137t-101 43t-101 -43t-30 -137z" />
<glyph unicode="&#xbb;" horiz-adv-x="1423" d="M113 219q0 14 18 29l361 264l-361 264q-18 15 -18 29q0 20 51 88q46 57 67 57q13 0 29 -12l440 -328q18 -13 23.5 -31.5t5.5 -66.5t-5.5 -66.5t-23.5 -31.5l-440 -328q-16 -12 -29 -12q-21 0 -67 57q-51 68 -51 88zM705 219q0 14 18 29l360 264l-360 264q-18 15 -18 29 q0 20 51 88q46 57 67 57q13 0 29 -12l440 -328q18 -13 23.5 -31.5t5.5 -66.5t-5.5 -66.5t-23.5 -31.5l-440 -328q-16 -12 -29 -12q-21 0 -67 57q-51 68 -51 88z" />
<glyph unicode="&#xbc;" horiz-adv-x="1679" d="M106 1305q0 41 4 54t21 17q91 27 211 27h29q54 0 71 -7.5t17 -29.5v-635h102q14 0 20.5 -15.5t6.5 -60.5t-6 -60t-21 -15h-422q-14 0 -20 15t-6 60t6 60.5t20 15.5h133v502h-139q-17 0 -22 13t-5 59zM323 23q-1 7 5 16l813 1323q12 20 34 25.5t82 5.5q99 0 100 -23 q1 -7 -5 -16l-813 -1323q-12 -20 -34.5 -25.5t-82.5 -5.5q-99 0 -99 23zM950 223v8q0 47 21 97l207 471q8 16 24 20t80 4q21 0 35 -0.5t25 -1.5t17 -3t9 -5.5t3 -7.5t-3 -10l-215 -482h170v187q0 16 19 21t73 5q55 0 73.5 -4.5t18.5 -21.5v-187h78q18 0 22.5 -12.5 t4.5 -64.5t-4.5 -66t-22.5 -14h-78v-131q0 -16 -18 -20.5t-74 -4.5q-55 0 -73.5 4.5t-18.5 20.5v131h-342q-20 0 -25.5 13.5t-5.5 53.5z" />
<glyph unicode="&#xbd;" horiz-adv-x="1679" d="M102 1305q0 41 4 54t21 17q92 27 211 27h29q54 0 71 -7.5t17 -29.5v-635h102q14 0 20.5 -15.5t6.5 -60.5t-6 -60t-21 -15h-422q-14 0 -20 15t-6 60t6 60.5t20 15.5h133v502h-139q-17 0 -22 13t-5 59zM321 23q-1 7 5 16l813 1323q12 20 34 25.5t82 5.5q99 0 100 -23 q1 -7 -5 -16l-813 -1323q-12 -20 -34.5 -25.5t-82.5 -5.5q-99 0 -99 23zM1051 74q0 65 18 86l211 233q52 59 73 95.5t21 78.5q0 54 -30 75.5t-95 21.5h-162q-17 0 -21.5 11.5t-4.5 55.5q0 43 4 56.5t20 17.5q83 24 201 24q136 0 209.5 -63.5t73.5 -179.5q0 -78 -33 -139.5 t-125 -153.5l-135 -131h280q17 0 22 -15t5 -65t-5 -66t-22 -16h-477q-18 0 -23 13.5t-5 60.5z" />
<glyph unicode="&#xbe;" horiz-adv-x="1679" d="M98 668q0 43 5 55t22 12h154q73 0 108 22.5t35 69.5q0 45 -31.5 66.5t-103.5 21.5h-41q-14 0 -20.5 16.5t-6.5 61.5q0 46 5.5 61t19.5 15h32q72 0 107 20t35 68q0 46 -30 64t-95 18h-160q-18 0 -23.5 13t-5.5 55q0 39 5 54t20 19q82 25 203 25q132 0 205 -60t73 -174 q0 -120 -116 -170q62 -29 93 -74t31 -116q0 -113 -81 -176.5t-218 -63.5q-122 0 -192 25q-18 6 -23.5 19.5t-5.5 52.5zM323 23q-1 7 5 16l813 1323q12 20 34 25.5t82 5.5q99 0 100 -23q1 -7 -5 -16l-813 -1323q-12 -20 -34.5 -25.5t-82.5 -5.5q-99 0 -99 23zM950 223v8 q0 47 21 97l207 471q8 16 24 20t80 4q21 0 35 -0.5t25 -1.5t17 -3t9 -5.5t3 -7.5t-3 -10l-215 -482h170v187q0 16 19 21t73 5q55 0 73.5 -4.5t18.5 -21.5v-187h78q18 0 22.5 -12.5t4.5 -64.5t-4.5 -66t-22.5 -14h-78v-131q0 -16 -18 -20.5t-74 -4.5q-55 0 -73.5 4.5 t-18.5 20.5v131h-342q-20 0 -25.5 13.5t-5.5 53.5z" />
<glyph unicode="&#xbf;" horiz-adv-x="882" d="M70 -29q0 84 25.5 147.5t73.5 116t140 123.5l64 50q37 28 46 53.5t9 91.5q0 20 15.5 26.5t72.5 6.5q55 0 73.5 -5.5t28.5 -25.5q29 -60 29 -125q0 -51 -22 -87.5t-76 -78.5l-70 -55q-91 -72 -126.5 -119.5t-35.5 -101.5q0 -69 50 -105q61 -43 219 -43h186q23 0 30 -15.5 t7 -72.5q0 -51 -5.5 -69t-25.5 -25q-107 -39 -274 -39q-221 0 -334 107q-100 89 -100 245zM387 877v28q0 67 26 93t91 26h31q65 0 90.5 -26t25.5 -93v-28q0 -67 -25.5 -93t-90.5 -26h-31q-65 0 -91 26t-26 93z" />
<glyph unicode="&#xc0;" horiz-adv-x="1222" d="M45 43l356 1284q9 29 26 42.5t57.5 19.5t125.5 6q121 0 157 -12.5t48 -55.5l363 -1284q8 -26 -14.5 -34.5t-100.5 -8.5q-57 0 -84.5 3.5t-37 10t-13.5 21.5l-90 327h-463l-88 -327q-6 -22 -29.5 -28.5t-101.5 -6.5q-76 0 -97.5 8.5t-13.5 34.5zM365 1706q0 21 43 88 q25 39 41.5 55.5t31.5 16.5q12 0 31 -15l330 -268q12 -11 8.5 -24.5t-25.5 -47.5q-24 -37 -36 -45.5t-25 0.5l-375 207q-24 13 -24 33zM432 573h348l-159 592h-29z" />
<glyph unicode="&#xc1;" horiz-adv-x="1222" d="M45 43l356 1284q9 29 26 42.5t57.5 19.5t125.5 6q121 0 157 -12.5t48 -55.5l363 -1284q8 -26 -14.5 -34.5t-100.5 -8.5q-57 0 -84.5 3.5t-37 10t-13.5 21.5l-90 327h-463l-88 -327q-6 -22 -29.5 -28.5t-101.5 -6.5q-76 0 -97.5 8.5t-13.5 34.5zM372 1558.5 q-3 13.5 9 24.5l330 268q19 15 30 15q27 0 74 -72q43 -67 43 -88q0 -20 -24 -33l-375 -207q-13 -9 -25.5 -0.5t-36.5 45.5q-22 34 -25 47.5zM432 573h348l-159 592h-29z" />
<glyph unicode="&#xc2;" horiz-adv-x="1222" d="M45 43l356 1284q9 29 26 42.5t57.5 19.5t125.5 6q121 0 157 -12.5t48 -55.5l363 -1284q8 -26 -14.5 -34.5t-100.5 -8.5q-57 0 -84.5 3.5t-37 10t-13.5 21.5l-90 327h-463l-88 -327q-6 -22 -29.5 -28.5t-101.5 -6.5q-76 0 -97.5 8.5t-13.5 34.5zM292 1563.5 q-8 12.5 3 27.5l219 252q15 17 33.5 22t62.5 5t63 -5t34 -22l219 -252q11 -15 3 -27.5t-46 -45.5t-55.5 -41t-30.5 4l-187 209l-186 -209q-13 -12 -30.5 -4t-55.5 41t-46 45.5zM432 573h348l-159 592h-29z" />
<glyph unicode="&#xc3;" horiz-adv-x="1222" d="M45 43l356 1284q9 29 26 42.5t57.5 19.5t125.5 6q121 0 157 -12.5t48 -55.5l363 -1284q8 -26 -14.5 -34.5t-100.5 -8.5q-57 0 -84.5 3.5t-37 10t-13.5 21.5l-90 327h-463l-88 -327q-6 -22 -29.5 -28.5t-101.5 -6.5q-76 0 -97.5 8.5t-13.5 34.5zM279 1579q32 85 86 131.5 t120 46.5q53 0 131 -33.5t109 -33.5q29 0 52 13t50 46q17 20 74 -14q30 -18 38.5 -29t2.5 -27q-32 -85 -86.5 -131.5t-120.5 -46.5q-53 0 -130 34t-109 34q-54 0 -103 -60q-16 -19 -74 15q-30 18 -38 28.5t-2 26.5zM432 573h348l-159 592h-29z" />
<glyph unicode="&#xc4;" horiz-adv-x="1222" d="M45 43l356 1284q9 29 26 42.5t57.5 19.5t125.5 6q121 0 157 -12.5t48 -55.5l363 -1284q8 -26 -14.5 -34.5t-100.5 -8.5q-57 0 -84.5 3.5t-37 10t-13.5 21.5l-90 327h-463l-88 -327q-6 -22 -29.5 -28.5t-101.5 -6.5q-76 0 -97.5 8.5t-13.5 34.5zM307 1608v24q0 66 25 91.5 t88 25.5h31q63 0 86.5 -25.5t23.5 -91.5v-24q0 -66 -23.5 -91.5t-86.5 -25.5h-31q-63 0 -88 25.5t-25 91.5zM432 573h348l-159 592h-29zM662 1608v24q0 66 24.5 91.5t87.5 25.5h31q63 0 86.5 -25.5t23.5 -91.5v-24q0 -66 -23.5 -91.5t-86.5 -25.5h-31q-63 0 -87.5 25.5 t-24.5 91.5z" />
<glyph unicode="&#xc5;" horiz-adv-x="1222" d="M45 43l356 1284q9 29 26 42.5t57.5 19.5t125.5 6q121 0 157 -12.5t48 -55.5l363 -1284q8 -26 -14.5 -34.5t-100.5 -8.5q-57 0 -84.5 3.5t-37 10t-13.5 21.5l-90 327h-463l-88 -327q-6 -22 -29.5 -28.5t-101.5 -6.5q-76 0 -97.5 8.5t-13.5 34.5zM393 1663v49 q0 101 50.5 147t152.5 46h31q102 0 152 -46t50 -147v-49q0 -101 -50 -147t-152 -46h-31q-102 0 -152.5 46t-50.5 147zM432 573h348l-159 592h-29zM528 1675q0 -40 15.5 -56.5t56.5 -16.5h23q41 0 56 16.5t15 56.5v25q0 41 -15.5 57.5t-55.5 16.5h-23q-41 0 -56.5 -17 t-15.5 -57v-25z" />
<glyph unicode="&#xc6;" horiz-adv-x="1810" d="M1 21q-2 7 5 22l719 1284q22 41 59.5 53.5t151.5 12.5h741q23 0 30 -21t7 -86q0 -64 -7 -85t-30 -21h-528v-367h438q23 0 30 -19t7 -83t-7 -85.5t-30 -21.5h-438v-391h571q23 0 30 -19.5t7 -84.5t-7 -87t-30 -22h-594q-129 0 -176 47q-25 25 -34 61t-9 99v188h-450 l-199 -360q-11 -21 -36.5 -28t-98.5 -7q-114 0 -122 21zM571 606h336v559h-26z" />
<glyph unicode="&#xc7;" horiz-adv-x="1042" d="M72 694q0 169 47 304.5t130.5 224t199 135.5t253.5 47q151 0 252 -43q20 -8 25.5 -23.5t5.5 -70.5q0 -61 -6 -75.5t-27 -14.5h-166q-233 0 -340 -107q-118 -115 -118 -377q0 -266 129 -381q114 -100 336 -100h163q22 0 27.5 -15t5.5 -73q0 -52 -6 -69t-25 -25 q-98 -43 -262 -43h-8v-6q0 -14 9.5 -23.5t37.5 -21.5l21 -9q82 -33 112.5 -72.5t30.5 -105.5q0 -86 -57 -130t-148 -44q-81 0 -143 23q-15 6 -19 18t-4 45q0 37 5 47t22 10h94q80 0 80 39q0 16 -16 27t-68 31l-27 10q-46 18 -66 39.5t-20 58.5q0 38 23 76 q-221 43 -352 219.5t-131 474.5z" />
<glyph unicode="&#xc8;" horiz-adv-x="1036" d="M133 207v1143q0 26 20 34.5t91 8.5h659q23 0 30 -21t7 -86q0 -64 -7 -85t-30 -21h-528v-367h438q23 0 30 -19t7 -83t-7 -85.5t-30 -21.5h-438v-391h571q23 0 30 -19.5t7 -84.5t-7 -87t-30 -22h-594q-129 0 -176 47q-25 25 -34 61t-9 99zM295 1706q0 21 43 88q47 72 74 72 q11 0 30 -15l330 -268q12 -11 9 -24.5t-25 -47.5q-24 -37 -36.5 -45.5t-25.5 0.5l-375 207q-24 13 -24 33z" />
<glyph unicode="&#xc9;" horiz-adv-x="1036" d="M133 207v1143q0 26 20 34.5t91 8.5h659q23 0 30 -21t7 -86q0 -64 -7 -85t-30 -21h-528v-367h438q23 0 30 -19t7 -83t-7 -85.5t-30 -21.5h-438v-391h571q23 0 30 -19.5t7 -84.5t-7 -87t-30 -22h-594q-129 0 -176 47q-25 25 -34 61t-9 99zM302.5 1558.5q-3.5 13.5 8.5 24.5 l330 268q19 15 31 15q15 0 31.5 -16.5t41.5 -55.5q43 -67 43 -88q0 -20 -24 -33l-375 -207q-13 -9 -25 -0.5t-36 45.5q-22 34 -25.5 47.5z" />
<glyph unicode="&#xca;" horiz-adv-x="1036" d="M133 207v1143q0 26 20 34.5t91 8.5h659q23 0 30 -21t7 -86q0 -64 -7 -85t-30 -21h-528v-367h438q23 0 30 -19t7 -83t-7 -85.5t-30 -21.5h-438v-391h571q23 0 30 -19.5t7 -84.5t-7 -87t-30 -22h-594q-129 0 -176 47q-25 25 -34 61t-9 99zM228 1563.5q-8 12.5 3 27.5 l220 252q15 17 33.5 22t62.5 5t62.5 -5t33.5 -22l219 -252q11 -15 3 -27.5t-46 -45.5t-55.5 -41t-30.5 4l-186 209l-187 -209q-13 -12 -30.5 -4t-55.5 41t-46 45.5z" />
<glyph unicode="&#xcb;" horiz-adv-x="1036" d="M133 207v1143q0 26 20 34.5t91 8.5h659q23 0 30 -21t7 -86q0 -64 -7 -85t-30 -21h-528v-367h438q23 0 30 -19t7 -83t-7 -85.5t-30 -21.5h-438v-391h571q23 0 30 -19.5t7 -84.5t-7 -87t-30 -22h-594q-129 0 -176 47q-25 25 -34 61t-9 99zM238 1608v24q0 66 24.5 91.5 t87.5 25.5h31q63 0 87 -25.5t24 -91.5v-24q0 -66 -24 -91.5t-87 -25.5h-31q-63 0 -87.5 25.5t-24.5 91.5zM592 1608v24q0 66 25 91.5t88 25.5h30q63 0 87 -25.5t24 -91.5v-24q0 -66 -24 -91.5t-87 -25.5h-30q-63 0 -88 25.5t-25 91.5z" />
<glyph unicode="&#xcc;" horiz-adv-x="794" d="M82 92q0 59 5.5 77.5t25.5 18.5h163v1016h-163q-20 0 -25.5 18.5t-5.5 77.5q0 58 5.5 75.5t25.5 17.5h569q20 0 25.5 -17.5t5.5 -75.5q0 -59 -5.5 -77.5t-25.5 -18.5h-164v-1016h164q20 0 25.5 -18.5t5.5 -77.5q0 -58 -5.5 -75t-25.5 -17h-569q-20 0 -25.5 17t-5.5 75z M150 1706q0 21 43 88q25 39 41.5 55.5t31.5 16.5q12 0 31 -15l330 -268q12 -11 8.5 -24.5t-25.5 -47.5q-24 -37 -36 -45.5t-25 0.5l-375 207q-24 13 -24 33z" />
<glyph unicode="&#xcd;" horiz-adv-x="794" d="M82 92q0 59 5.5 77.5t25.5 18.5h163v1016h-163q-20 0 -25.5 18.5t-5.5 77.5q0 58 5.5 75.5t25.5 17.5h569q20 0 25.5 -17.5t5.5 -75.5q0 -59 -5.5 -77.5t-25.5 -18.5h-164v-1016h164q20 0 25.5 -18.5t5.5 -77.5q0 -58 -5.5 -75t-25.5 -17h-569q-20 0 -25.5 17t-5.5 75z M157 1558.5q-3 13.5 9 24.5l330 268q19 15 30 15q27 0 74 -72q43 -67 43 -88q0 -19 -25 -33l-374 -207q-13 -9 -25.5 -0.5t-36.5 45.5q-22 34 -25 47.5z" />
<glyph unicode="&#xce;" horiz-adv-x="794" d="M79 1563.5q-8 12.5 3 27.5l219 252q15 17 33.5 22t62.5 5t63 -5t34 -22l219 -252q11 -15 3 -27.5t-46 -45.5t-55.5 -41t-30.5 4l-187 209l-186 -209q-13 -12 -30.5 -4t-55.5 41t-46 45.5zM82 92q0 59 5.5 77.5t25.5 18.5h163v1016h-163q-20 0 -25.5 18.5t-5.5 77.5 q0 58 5.5 75.5t25.5 17.5h569q20 0 25.5 -17.5t5.5 -75.5q0 -59 -5.5 -77.5t-25.5 -18.5h-164v-1016h164q20 0 25.5 -18.5t5.5 -77.5q0 -58 -5.5 -75t-25.5 -17h-569q-20 0 -25.5 17t-5.5 75z" />
<glyph unicode="&#xcf;" horiz-adv-x="794" d="M82 92q0 59 5.5 77.5t25.5 18.5h163v1016h-163q-20 0 -25.5 18.5t-5.5 77.5q0 58 5.5 75.5t25.5 17.5h569q20 0 25.5 -17.5t5.5 -75.5q0 -59 -5.5 -77.5t-25.5 -18.5h-164v-1016h164q20 0 25.5 -18.5t5.5 -77.5q0 -58 -5.5 -75t-25.5 -17h-569q-20 0 -25.5 17t-5.5 75z M92 1608v24q0 66 25 91.5t88 25.5h31q63 0 86.5 -25.5t23.5 -91.5v-24q0 -66 -23.5 -91.5t-86.5 -25.5h-31q-63 0 -88 25.5t-25 91.5zM446 1608v24q0 66 25 91.5t88 25.5h31q63 0 86.5 -25.5t23.5 -91.5v-24q0 -66 -23.5 -91.5t-86.5 -25.5h-31q-63 0 -88 25.5t-25 91.5z " />
<glyph unicode="&#xd0;" horiz-adv-x="1310" d="M-4 707q0 61 5.5 78.5t25.5 17.5h141v543q0 27 20.5 37t90.5 10h221q198 0 335.5 -44.5t235.5 -146.5q168 -177 168 -506t-168 -506q-97 -102 -234.5 -146t-336.5 -44h-221q-70 0 -90.5 10t-20.5 37v563h-141q-20 0 -25.5 18t-5.5 79zM410 213h106q133 0 216.5 27.5 t141.5 87.5q111 117 111 368q0 252 -111 369q-58 60 -141.5 87.5t-216.5 27.5h-106v-377h178q20 0 25 -17.5t5 -78.5q0 -62 -5 -79.5t-25 -17.5h-178v-397z" />
<glyph unicode="&#xd1;" horiz-adv-x="1370" d="M135 39v1315q0 25 20.5 32t102.5 7q84 0 112 -11t54 -51l586 -946v969q0 25 19.5 32t90.5 7q72 0 93.5 -7t21.5 -32v-1315q0 -25 -20.5 -32t-102.5 -7q-85 0 -113 10t-53 49l-586 947v-967q0 -25 -21 -32t-93 -7t-91.5 7t-19.5 32zM377 1579q32 85 86.5 131.5t120.5 46.5 q52 0 130 -33.5t109 -33.5q54 0 103 59q16 20 73 -14q30 -18 38.5 -29t2.5 -27q-32 -85 -86 -131.5t-120 -46.5q-53 0 -131 34t-109 34q-53 0 -102 -60q-16 -19 -74 15q-30 19 -38.5 29t-2.5 26z" />
<glyph unicode="&#xd2;" horiz-adv-x="1306" d="M72 696q0 341 154 525t427 184t427.5 -184t154.5 -525q0 -340 -154.5 -524t-427.5 -184t-427 183.5t-154 524.5zM328 696q0 -247 78 -365t247 -118t247.5 118.5t78.5 364.5q0 247 -78.5 365.5t-247.5 118.5t-247 -118.5t-78 -365.5zM406 1706q0 21 43 88q25 39 41.5 55.5 t31.5 16.5q12 0 31 -15l330 -268q12 -11 8.5 -24.5t-25.5 -47.5q-24 -37 -36 -45.5t-25 0.5l-375 207q-24 13 -24 33z" />
<glyph unicode="&#xd3;" horiz-adv-x="1306" d="M72 696q0 341 154 525t427 184t427.5 -184t154.5 -525q0 -340 -154.5 -524t-427.5 -184t-427 183.5t-154 524.5zM328 696q0 -247 78 -365t247 -118t247.5 118.5t78.5 364.5q0 247 -78.5 365.5t-247.5 118.5t-247 -118.5t-78 -365.5zM413 1558.5q-3 13.5 9 24.5l330 268 q19 15 30 15q27 0 74 -72q43 -67 43 -88q0 -19 -25 -33l-374 -207q-13 -9 -25.5 -0.5t-36.5 45.5q-22 34 -25 47.5z" />
<glyph unicode="&#xd4;" horiz-adv-x="1306" d="M72 696q0 341 154 525t427 184t427.5 -184t154.5 -525q0 -340 -154.5 -524t-427.5 -184t-427 183.5t-154 524.5zM328 696q0 -247 78 -365t247 -118t247.5 118.5t78.5 364.5q0 247 -78.5 365.5t-247.5 118.5t-247 -118.5t-78 -365.5zM335 1563.5q-8 12.5 3 27.5l219 252 q15 17 33.5 22t62.5 5t63 -5t34 -22l219 -252q11 -15 3 -27.5t-46 -45.5t-55.5 -41t-30.5 4l-187 209l-186 -209q-13 -12 -30.5 -4t-55.5 41t-46 45.5z" />
<glyph unicode="&#xd5;" horiz-adv-x="1306" d="M72 696q0 341 154 525t427 184t427.5 -184t154.5 -525q0 -340 -154.5 -524t-427.5 -184t-427 183.5t-154 524.5zM322 1579q32 85 86 131.5t120 46.5q52 0 130 -33.5t110 -33.5q29 0 52 13t50 46q17 20 74 -14q30 -18 38.5 -29t2.5 -27q-32 -85 -86.5 -131.5t-120.5 -46.5 q-52 0 -130 34t-109 34q-54 0 -103 -60q-16 -19 -74 15q-30 18 -38 28.5t-2 26.5zM328 696q0 -247 78 -365t247 -118t247.5 118.5t78.5 364.5q0 247 -78.5 365.5t-247.5 118.5t-247 -118.5t-78 -365.5z" />
<glyph unicode="&#xd6;" horiz-adv-x="1306" d="M72 696q0 341 154 525t427 184t427.5 -184t154.5 -525q0 -340 -154.5 -524t-427.5 -184t-427 183.5t-154 524.5zM328 696q0 -247 78 -365t247 -118t247.5 118.5t78.5 364.5q0 247 -78.5 365.5t-247.5 118.5t-247 -118.5t-78 -365.5zM348 1608v24q0 66 25 91.5t88 25.5h31 q63 0 86.5 -25.5t23.5 -91.5v-24q0 -66 -23.5 -91.5t-86.5 -25.5h-31q-63 0 -88 25.5t-25 91.5zM702 1608v24q0 66 25 91.5t88 25.5h31q63 0 86.5 -25.5t23.5 -91.5v-24q0 -66 -23.5 -91.5t-86.5 -25.5h-31q-63 0 -88 25.5t-25 91.5z" />
<glyph unicode="&#xd7;" d="M164 475q-9 17 4 31l192 192l-192 195q-13 14 -4 31t51 59q43 43 60.5 52t31.5 -5l193 -192l194 194q14 13 31 4t59 -51q43 -43 52 -60.5t-5 -31.5l-192 -195l192 -192q14 -14 5 -31.5t-52 -60.5q-42 -42 -59 -51t-31 4l-194 194l-193 -192q-14 -14 -31.5 -5t-60.5 52 q-42 42 -51 59z" />
<glyph unicode="&#xd8;" horiz-adv-x="1306" d="M72 696q0 341 154 525t427 184q99 0 191 -29l80 193q7 20 27 25t81 5q31 0 48.5 -1t29 -4.5t12 -9.5t-1.5 -15l-114 -277q229 -179 229 -596q0 -340 -154.5 -524t-427.5 -184q-95 0 -178 22l-76 -182q-7 -20 -27.5 -25.5t-80.5 -5.5q-31 0 -49 1.5t-29 5t-12 9.5t2 15 l108 262q-239 178 -239 606zM328 696q0 -249 82 -368l346 837q-46 15 -103 15q-169 0 -247 -118.5t-78 -365.5zM563 221q36 -8 90 -8q169 0 247.5 118.5t78.5 364.5q0 234 -74 355z" />
<glyph unicode="&#xd9;" horiz-adv-x="1290" d="M125 410v944q0 24 23 31.5t96 7.5q74 0 98.5 -7.5t24.5 -31.5v-910q0 -75 12.5 -116.5t44.5 -67.5q58 -47 221 -47t221 47q32 26 45 68t13 116v910q0 24 24.5 31.5t98.5 7.5q73 0 95.5 -7.5t22.5 -31.5v-944q0 -112 -24.5 -184t-77.5 -122q-122 -116 -418 -116t-418 116 q-53 50 -77.5 122t-24.5 184zM377 1706q0 21 43 88q47 72 74 72q11 0 30 -15l330 -268q12 -11 9 -24.5t-25 -47.5q-24 -37 -36.5 -45.5t-25.5 0.5l-375 207q-24 13 -24 33z" />
<glyph unicode="&#xda;" horiz-adv-x="1290" d="M125 410v944q0 24 23 31.5t96 7.5q74 0 98.5 -7.5t24.5 -31.5v-910q0 -75 12.5 -116.5t44.5 -67.5q58 -47 221 -47t221 47q32 26 45 68t13 116v910q0 24 24.5 31.5t98.5 7.5q73 0 95.5 -7.5t22.5 -31.5v-944q0 -112 -24.5 -184t-77.5 -122q-122 -116 -418 -116t-418 116 q-53 50 -77.5 122t-24.5 184zM425.5 1558.5q-3.5 13.5 8.5 24.5l330 268q19 15 31 15q15 0 31.5 -16.5t41.5 -55.5q43 -67 43 -88q0 -20 -24 -33l-375 -207q-13 -9 -25 -0.5t-36 45.5q-22 34 -25.5 47.5z" />
<glyph unicode="&#xdb;" horiz-adv-x="1290" d="M125 410v944q0 24 23 31.5t96 7.5q74 0 98.5 -7.5t24.5 -31.5v-910q0 -75 12.5 -116.5t44.5 -67.5q58 -47 221 -47t221 47q32 26 45 68t13 116v910q0 24 24.5 31.5t98.5 7.5q73 0 95.5 -7.5t22.5 -31.5v-944q0 -112 -24.5 -184t-77.5 -122q-122 -116 -418 -116t-418 116 q-53 50 -77.5 122t-24.5 184zM327 1563.5q-8 12.5 3 27.5l219 252q15 17 33.5 22t62.5 5t62.5 -5t33.5 -22l220 -252q11 -15 3 -27.5t-46 -45.5t-56 -41t-31 4l-186 209l-186 -209q-13 -12 -30.5 -4t-55.5 41t-46 45.5z" />
<glyph unicode="&#xdc;" horiz-adv-x="1290" d="M125 410v944q0 24 23 31.5t96 7.5q74 0 98.5 -7.5t24.5 -31.5v-910q0 -75 12.5 -116.5t44.5 -67.5q58 -47 221 -47t221 47q32 26 45 68t13 116v910q0 24 24.5 31.5t98.5 7.5q73 0 95.5 -7.5t22.5 -31.5v-944q0 -112 -24.5 -184t-77.5 -122q-122 -116 -418 -116t-418 116 q-53 50 -77.5 122t-24.5 184zM340 1608v24q0 66 25 91.5t88 25.5h30q63 0 87 -25.5t24 -91.5v-24q0 -66 -24 -91.5t-87 -25.5h-30q-63 0 -88 25.5t-25 91.5zM694 1608v24q0 66 25 91.5t88 25.5h31q63 0 86.5 -25.5t23.5 -91.5v-24q0 -66 -23.5 -91.5t-86.5 -25.5h-31 q-63 0 -88 25.5t-25 91.5z" />
<glyph unicode="&#xdd;" horiz-adv-x="1128" d="M10 1370q-1 9 13.5 14t39 7t70.5 2q81 0 109 -7.5t39 -31.5l294 -629l293 631q11 23 35.5 30t100.5 7q105 0 112 -20q2 -8 -4 -23l-426 -893v-418q0 -24 -24.5 -31.5t-98.5 -7.5q-73 0 -96 7.5t-23 31.5v422l-428 885q-5 15 -6 24zM358 1558.5q-3 13.5 9 24.5l329 268 q19 15 31 15q27 0 74 -72q43 -67 43 -88q0 -19 -25 -33l-375 -207q-13 -9 -25 -0.5t-36 45.5q-22 34 -25 47.5z" />
<glyph unicode="&#xde;" horiz-adv-x="1136" d="M135 39v1315q0 24 23 31.5t96 7.5q74 0 98.5 -7.5t24.5 -31.5v-207h170q146 0 248 -30t174 -105q106 -112 106 -301q0 -195 -110 -305q-134 -134 -412 -134h-176v-233q0 -24 -24.5 -31.5t-98.5 -7.5q-73 0 -96 7.5t-23 31.5zM377 479h170q144 0 209 62t65 172 q0 99 -51 153q-65 68 -240 68h-153v-455z" />
<glyph unicode="&#xdf;" horiz-adv-x="1163" d="M111 35v864q0 252 114 375q122 131 355 131q206 0 325 -104.5t119 -280.5q0 -96 -43 -172.5t-127 -116.5q115 -38 179.5 -123.5t64.5 -220.5q0 -174 -108.5 -286.5t-301.5 -112.5q-125 0 -207 30q-21 8 -26.5 24t-5.5 69t7 68.5t29 15.5h76q181 0 248 61q53 47 53 143 q0 91 -49 140q-38 36 -101 51.5t-167 15.5h-13q-22 0 -29 17t-7 79t7 79.5t29 17.5h7q252 0 252 202q0 95 -55 147t-154 52q-119 0 -181 -74q-61 -72 -61 -243v-848q0 -23 -21 -29t-94 -6t-93.5 6t-20.5 29z" />
<glyph unicode="&#xe0;" horiz-adv-x="1024" d="M55 311q0 146 86 226q102 94 344 94h156v35q0 85 -35 120q-24 23 -70.5 32t-132.5 9h-206q-22 0 -28.5 16t-6.5 68q0 53 5.5 68.5t25.5 21.5q128 35 268 35q230 0 325 -98q84 -84 84 -266v-443q0 -31 16.5 -42t63.5 -11h19q15 0 20.5 -13.5t5.5 -58.5q0 -38 -4 -51.5 t-16 -21.5q-54 -35 -148 -35q-61 0 -103.5 23.5t-57.5 64.5q-96 -96 -267 -96q-154 0 -249 88.5t-95 234.5zM248 1337q0 21 43 88q47 72 74 72q13 0 30 -14l330 -269q12 -11 9 -24t-25 -47q-24 -37 -36.5 -45.5t-25.5 0.5l-375 207q-24 13 -24 32zM287 322q0 -66 43 -105 t123 -39q90 0 139 43t49 156v80h-166q-109 0 -153 -41q-35 -30 -35 -94z" />
<glyph unicode="&#xe1;" horiz-adv-x="1024" d="M55 311q0 146 86 226q102 94 344 94h156v35q0 85 -35 120q-24 23 -70.5 32t-132.5 9h-206q-22 0 -28.5 16t-6.5 68q0 53 5.5 68.5t25.5 21.5q128 35 268 35q230 0 325 -98q84 -84 84 -266v-443q0 -31 16.5 -42t63.5 -11h19q15 0 20.5 -13.5t5.5 -58.5q0 -38 -4 -51.5 t-16 -21.5q-54 -35 -148 -35q-61 0 -103.5 23.5t-57.5 64.5q-96 -96 -267 -96q-154 0 -249 88.5t-95 234.5zM255.5 1190q-3.5 13 8.5 24l330 269q18 14 31 14q15 0 31.5 -16.5t41.5 -55.5q43 -67 43 -88q0 -19 -24 -32l-375 -207q-13 -9 -25 -0.5t-36 45.5q-22 34 -25.5 47z M287 322q0 -66 43 -105t123 -39q90 0 139 43t49 156v80h-166q-109 0 -153 -41q-35 -30 -35 -94z" />
<glyph unicode="&#xe2;" horiz-adv-x="1024" d="M55 311q0 146 86 226q102 94 344 94h156v35q0 85 -35 120q-24 23 -70.5 32t-132.5 9h-206q-22 0 -28.5 16t-6.5 68q0 53 5.5 68.5t25.5 21.5q128 35 268 35q230 0 325 -98q84 -84 84 -266v-443q0 -31 16.5 -42t63.5 -11h19q15 0 20.5 -13.5t5.5 -58.5q0 -38 -4 -51.5 t-16 -21.5q-54 -35 -148 -35q-61 0 -103.5 23.5t-57.5 64.5q-96 -96 -267 -96q-154 0 -249 88.5t-95 234.5zM177 1195.5q-8 13.5 3 27.5l219 252q14 17 33 21.5t64 4.5t63 -4.5t33 -21.5l219 -252q11 -14 3 -27.5t-46 -46.5t-55.5 -41t-30.5 4l-186 209l-187 -209 q-13 -12 -30.5 -4t-55.5 41t-46 46.5zM287 322q0 -66 43 -105t123 -39q90 0 139 43t49 156v80h-166q-109 0 -153 -41q-35 -30 -35 -94z" />
<glyph unicode="&#xe3;" horiz-adv-x="1024" d="M55 311q0 146 86 226q102 94 344 94h156v35q0 85 -35 120q-24 23 -70.5 32t-132.5 9h-206q-22 0 -28.5 16t-6.5 68q0 53 5.5 68.5t25.5 21.5q128 35 268 35q230 0 325 -98q84 -84 84 -266v-443q0 -31 16.5 -42t63.5 -11h19q15 0 20.5 -13.5t5.5 -58.5q0 -38 -4 -51.5 t-16 -21.5q-54 -35 -148 -35q-61 0 -103.5 23.5t-57.5 64.5q-96 -96 -267 -96q-154 0 -249 88.5t-95 234.5zM164 1210q32 85 86.5 132t120.5 47q53 0 130 -34t109 -34q54 0 103 59q16 20 73 -14q30 -19 38.5 -29t2.5 -26q-32 -85 -86 -131.5t-120 -46.5q-53 0 -131 33.5 t-109 33.5q-29 0 -52 -13t-50 -46q-17 -20 -74 14q-30 19 -38.5 29t-2.5 26zM287 322q0 -66 43 -105t123 -39q90 0 139 43t49 156v80h-166q-109 0 -153 -41q-35 -30 -35 -94z" />
<glyph unicode="&#xe4;" horiz-adv-x="1024" d="M55 311q0 146 86 226q102 94 344 94h156v35q0 85 -35 120q-24 23 -70.5 32t-132.5 9h-206q-22 0 -28.5 16t-6.5 68q0 53 5.5 68.5t25.5 21.5q128 35 268 35q230 0 325 -98q84 -84 84 -266v-443q0 -31 16.5 -42t63.5 -11h19q15 0 20.5 -13.5t5.5 -58.5q0 -38 -4 -51.5 t-16 -21.5q-54 -35 -148 -35q-61 0 -103.5 23.5t-57.5 64.5q-96 -96 -267 -96q-154 0 -249 88.5t-95 234.5zM195 1239v25q0 66 24.5 91t87.5 25h31q63 0 87 -25t24 -91v-25q0 -66 -24 -91.5t-87 -25.5h-31q-63 0 -87.5 25.5t-24.5 91.5zM287 322q0 -66 43 -105t123 -39 q90 0 139 43t49 156v80h-166q-109 0 -153 -41q-35 -30 -35 -94zM549 1239v25q0 66 25 91t88 25h30q63 0 87 -25t24 -91v-25q0 -66 -24 -91.5t-87 -25.5h-30q-63 0 -88 25.5t-25 91.5z" />
<glyph unicode="&#xe5;" horiz-adv-x="1024" d="M55 311q0 146 86 226q102 94 344 94h156v35q0 85 -35 120q-24 23 -70.5 32t-132.5 9h-206q-22 0 -28.5 16t-6.5 68q0 53 5.5 68.5t25.5 21.5q128 35 268 35q230 0 325 -98q84 -84 84 -266v-443q0 -31 16.5 -42t63.5 -11h19q15 0 20.5 -13.5t5.5 -58.5q0 -38 -4 -51.5 t-16 -21.5q-54 -35 -148 -35q-61 0 -103.5 23.5t-57.5 64.5q-96 -96 -267 -96q-154 0 -249 88.5t-95 234.5zM281 1298v50q0 101 50 146.5t152 45.5h31q102 0 152.5 -45.5t50.5 -146.5v-50q0 -101 -50.5 -146.5t-152.5 -45.5h-31q-102 0 -152 45.5t-50 146.5zM287 322 q0 -66 43 -105t123 -39q90 0 139 43t49 156v80h-166q-109 0 -153 -41q-35 -30 -35 -94zM416 1311q0 -41 15.5 -57.5t55.5 -16.5h23q41 0 56.5 17t15.5 57v24q0 40 -15.5 57t-56.5 17h-23q-40 0 -55.5 -16.5t-15.5 -57.5v-24z" />
<glyph unicode="&#xe6;" horiz-adv-x="1583" d="M55 303q0 162 108.5 229.5t317.5 67.5h160v66q0 85 -35 120q-24 23 -70.5 32t-132.5 9h-206q-22 0 -28.5 16t-6.5 68q0 53 5.5 68.5t25.5 21.5q128 35 268 35q129 0 204.5 -25t131.5 -85q119 110 299 110q208 0 315 -137.5t107 -376.5q0 -54 -9 -74t-32 -20h-594 q6 -113 80 -172q76 -61 237 -61h209q20 0 26.5 -15.5t6.5 -66.5t-5.5 -66.5t-23.5 -21.5q-113 -37 -260 -37q-249 0 -389 153q-63 -77 -147.5 -115t-204.5 -38q-155 0 -256 85.5t-101 229.5zM287 311q0 -62 43.5 -97.5t122.5 -35.5q90 0 139 43t49 156v49h-166 q-95 0 -141.5 -25.5t-46.5 -89.5zM883 600h411q-3 106 -54 172t-146 66q-94 0 -147 -61.5t-64 -176.5z" />
<glyph unicode="&#xe7;" horiz-adv-x="843" d="M61 514q0 242 136 382t354 140q132 0 217 -37q21 -9 26 -23.5t5 -66.5q0 -53 -6.5 -67.5t-28.5 -14.5h-141q-174 0 -250 -73q-72 -72 -72 -236q0 -169 78 -250q38 -38 95 -55.5t147 -17.5h147q22 0 28.5 -14t6.5 -66q0 -51 -5 -66.5t-24 -23.5q-85 -37 -217 -37h-10v-6 q0 -14 9.5 -23.5t37.5 -21.5l20 -9q82 -33 113 -72.5t31 -105.5q0 -86 -57 -130t-148 -44q-81 0 -143 23q-15 6 -19 18t-4 45q0 37 5 47t22 10h94q80 0 80 39q0 16 -16 27t-68 31l-27 10q-46 18 -66 39.5t-20 58.5q0 36 25 78q-163 40 -259 169.5t-96 342.5z" />
<glyph unicode="&#xe8;" d="M61 512q0 241 124 382.5t329 141.5q208 0 315 -137.5t107 -376.5q0 -54 -9 -74t-32 -20h-594q6 -113 80 -172q76 -61 237 -61h209q20 0 26.5 -15.5t6.5 -66.5t-5.5 -66.5t-23.5 -21.5q-113 -37 -260 -37q-251 0 -380.5 138.5t-129.5 385.5zM274 1337q0 21 43 88 q47 72 74 72q13 0 31 -14l330 -269q12 -11 8.5 -24t-25.5 -47q-24 -37 -36 -45.5t-25 0.5l-375 207q-25 14 -25 32zM301 600h412q-3 106 -54.5 172t-146.5 66q-94 0 -147 -61.5t-64 -176.5z" />
<glyph unicode="&#xe9;" d="M61 512q0 241 124 382.5t329 141.5q208 0 315 -137.5t107 -376.5q0 -54 -9 -74t-32 -20h-594q6 -113 80 -172q76 -61 237 -61h209q20 0 26.5 -15.5t6.5 -66.5t-5.5 -66.5t-23.5 -21.5q-113 -37 -260 -37q-251 0 -380.5 138.5t-129.5 385.5zM282 1190q-3 13 9 24l330 269 q17 14 30 14q27 0 74 -72q43 -67 43 -88q0 -18 -25 -32l-374 -207q-13 -9 -25.5 -0.5t-36.5 45.5q-22 34 -25 47zM301 600h412q-3 106 -54.5 172t-146.5 66q-94 0 -147 -61.5t-64 -176.5z" />
<glyph unicode="&#xea;" d="M61 512q0 241 124 382.5t329 141.5q208 0 315 -137.5t107 -376.5q0 -54 -9 -74t-32 -20h-594q6 -113 80 -172q76 -61 237 -61h209q20 0 26.5 -15.5t6.5 -66.5t-5.5 -66.5t-23.5 -21.5q-113 -37 -260 -37q-251 0 -380.5 138.5t-129.5 385.5zM202 1195.5q-8 13.5 3 27.5 l219 252q15 17 33 21.5t63 4.5t63 -4.5t33 -21.5l220 -252q11 -14 3 -27.5t-46 -46.5t-55.5 -41t-30.5 4l-187 209l-186 -209q-13 -12 -30.5 -4t-55.5 41t-46 46.5zM301 600h412q-3 106 -54.5 172t-146.5 66q-94 0 -147 -61.5t-64 -176.5z" />
<glyph unicode="&#xeb;" d="M61 512q0 241 124 382.5t329 141.5q208 0 315 -137.5t107 -376.5q0 -54 -9 -74t-32 -20h-594q6 -113 80 -172q76 -61 237 -61h209q20 0 26.5 -15.5t6.5 -66.5t-5.5 -66.5t-23.5 -21.5q-113 -37 -260 -37q-251 0 -380.5 138.5t-129.5 385.5zM217 1239v25q0 66 25 91t88 25 h30q63 0 87 -25t24 -91v-25q0 -66 -24 -91.5t-87 -25.5h-30q-63 0 -88 25.5t-25 91.5zM301 600h412q-3 106 -54.5 172t-146.5 66q-94 0 -147 -61.5t-64 -176.5zM571 1239v25q0 66 25 91t88 25h31q63 0 86.5 -25t23.5 -91v-25q0 -66 -23.5 -91.5t-86.5 -25.5h-31 q-63 0 -88 25.5t-25 91.5z" />
<glyph unicode="&#xec;" horiz-adv-x="450" d="M-20 1337q0 21 43 88q25 39 41.5 55.5t31.5 16.5q14 0 31 -14l330 -269q12 -11 8.5 -24t-25.5 -47q-24 -37 -36 -45.5t-25 0.5l-375 207q-24 13 -24 32zM111 35v954q0 23 20.5 29t93.5 6t94 -6t21 -29v-954q0 -23 -21 -29t-94 -6t-93.5 6t-20.5 29z" />
<glyph unicode="&#xed;" horiz-adv-x="450" d="M-13 1190q-3 13 9 24l330 269q17 14 30 14q27 0 74 -72q43 -67 43 -88q0 -19 -24 -32l-375 -207q-13 -9 -25.5 -0.5t-36.5 45.5q-22 34 -25 47zM111 35v954q0 23 20.5 29t93.5 6t94 -6t21 -29v-954q0 -23 -21 -29t-94 -6t-93.5 6t-20.5 29z" />
<glyph unicode="&#xee;" horiz-adv-x="450" d="M-93 1195.5q-8 13.5 3 27.5l219 252q15 17 33 21.5t63 4.5t64 -4.5t33 -21.5l219 -252q11 -14 3 -27.5t-46 -46.5t-55.5 -41t-30.5 4l-187 209l-186 -209q-13 -12 -30.5 -4t-55.5 41t-46 46.5zM111 35v954q0 23 20.5 29t93.5 6t94 -6t21 -29v-954q0 -23 -21 -29t-94 -6 t-93.5 6t-20.5 29z" />
<glyph unicode="&#xef;" horiz-adv-x="450" d="M-78 1239v25q0 66 25 91t88 25h31q63 0 86.5 -25t23.5 -91v-25q0 -66 -23.5 -91.5t-86.5 -25.5h-31q-63 0 -88 25.5t-25 91.5zM111 35v954q0 23 20.5 29t93.5 6t94 -6t21 -29v-954q0 -23 -21 -29t-94 -6t-93.5 6t-20.5 29zM276 1239v25q0 66 25 91t88 25h31 q63 0 86.5 -25t23.5 -91v-25q0 -66 -23.5 -91.5t-86.5 -25.5h-31q-63 0 -88 25.5t-25 91.5z" />
<glyph unicode="&#xf0;" horiz-adv-x="1079" d="M61 461q0 215 119.5 339t321.5 124q122 0 221 -52q-40 114 -115 203l-86 -74q-16 -13 -28.5 -6.5t-42.5 39.5q-31 34 -36 49.5t9 24.5l82 70q-64 53 -158 112q-16 8 -12 24t37 72q32 51 44.5 60.5t33.5 -2.5q125 -66 208 -135l127 108q16 13 29 6.5t43 -39.5 q31 -34 35.5 -49t-8.5 -24l-119 -101q240 -261 240 -635q0 -286 -123.5 -436.5t-345.5 -150.5q-228 0 -352 126.5t-124 346.5zM295 461q0 -134 64.5 -202.5t172.5 -68.5q125 0 181.5 93.5t56.5 279.5q0 57 -6 113q-107 49 -217 49q-125 0 -188.5 -67t-63.5 -197z" />
<glyph unicode="&#xf1;" horiz-adv-x="1069" d="M102 35v637q0 185 86 268q101 96 342 96h9q241 0 342 -96q86 -83 86 -268v-637q0 -23 -21 -29t-94 -6t-94 6t-21 29v620q0 51 -6.5 77t-23.5 46q-38 43 -172 43q-135 0 -173 -43q-17 -20 -23.5 -46t-6.5 -77v-620q0 -23 -21 -29t-94 -6t-94 6t-21 29zM203 1210 q32 85 86.5 132t120.5 47q52 0 129.5 -34t109.5 -34q54 0 103 59q16 20 73 -14q30 -19 38.5 -29t2.5 -26q-32 -85 -86.5 -131.5t-120.5 -46.5q-53 0 -130 33.5t-109 33.5q-54 0 -103 -59q-16 -20 -73 14q-30 19 -38.5 29t-2.5 26z" />
<glyph unicode="&#xf2;" horiz-adv-x="1064" d="M61 512q0 250 123.5 387t347.5 137q225 0 348.5 -137t123.5 -387t-123.5 -387t-348.5 -137q-224 0 -347.5 137t-123.5 387zM299 1337q0 21 43 88q47 72 74 72q12 0 30 -14l330 -269q12 -11 9 -24t-25 -47q-24 -37 -36.5 -45.5t-25.5 0.5l-374 207q-25 14 -25 32zM301 512 q0 -164 53 -243t178 -79t178.5 79t53.5 243t-53.5 243t-178.5 79t-178 -79t-53 -243z" />
<glyph unicode="&#xf3;" horiz-adv-x="1064" d="M61 512q0 250 123.5 387t347.5 137q225 0 348.5 -137t123.5 -387t-123.5 -387t-348.5 -137q-224 0 -347.5 137t-123.5 387zM301 512q0 -164 53 -243t178 -79t178.5 79t53.5 243t-53.5 243t-178.5 79t-178 -79t-53 -243zM308.5 1190q-3.5 13 8.5 24l330 269q17 14 31 14 q27 0 74 -72q43 -67 43 -88q0 -18 -25 -32l-375 -207q-13 -9 -25 -0.5t-36 45.5q-22 34 -25.5 47z" />
<glyph unicode="&#xf4;" horiz-adv-x="1064" d="M61 512q0 250 123.5 387t347.5 137q225 0 348.5 -137t123.5 -387t-123.5 -387t-348.5 -137q-224 0 -347.5 137t-123.5 387zM214 1195.5q-8 13.5 3 27.5l219 252q15 17 33 21.5t63 4.5t64 -4.5t33 -21.5l219 -252q11 -14 3 -27.5t-46 -46.5t-55.5 -41t-30.5 4l-187 209 l-186 -209q-13 -12 -30.5 -4t-55.5 41t-46 46.5zM301 512q0 -164 53 -243t178 -79t178.5 79t53.5 243t-53.5 243t-178.5 79t-178 -79t-53 -243z" />
<glyph unicode="&#xf5;" horiz-adv-x="1064" d="M61 512q0 250 123.5 387t347.5 137q225 0 348.5 -137t123.5 -387t-123.5 -387t-348.5 -137q-224 0 -347.5 137t-123.5 387zM201 1210q32 85 86.5 132t120.5 47q52 0 129.5 -34t109.5 -34q54 0 103 59q16 20 73 -14q30 -19 38.5 -29t2.5 -26q-32 -85 -86.5 -131.5 t-120.5 -46.5q-53 0 -130.5 33.5t-108.5 33.5q-54 0 -103 -59q-16 -20 -73 14q-30 19 -38.5 29t-2.5 26zM301 512q0 -164 53 -243t178 -79t178.5 79t53.5 243t-53.5 243t-178.5 79t-178 -79t-53 -243z" />
<glyph unicode="&#xf6;" horiz-adv-x="1064" d="M61 512q0 250 123.5 387t347.5 137q225 0 348.5 -137t123.5 -387t-123.5 -387t-348.5 -137q-224 0 -347.5 137t-123.5 387zM227 1239v25q0 66 25 91t88 25h31q63 0 86.5 -25t23.5 -91v-25q0 -66 -23.5 -91.5t-86.5 -25.5h-31q-63 0 -88 25.5t-25 91.5zM301 512 q0 -164 53 -243t178 -79t178.5 79t53.5 243t-53.5 243t-178.5 79t-178 -79t-53 -243zM582 1239v25q0 66 24.5 91t87.5 25h31q63 0 87 -25t24 -91v-25q0 -66 -24 -91.5t-87 -25.5h-31q-63 0 -87.5 25.5t-24.5 91.5z" />
<glyph unicode="&#xf7;" d="M98 700q0 61 5.5 80t25.5 19h743q20 0 25.5 -19t5.5 -80t-5.5 -79.5t-25.5 -18.5h-743q-20 0 -25.5 18.5t-5.5 79.5zM379 354v25q0 64 24 89.5t86 25.5h29q62 0 86.5 -25.5t24.5 -89.5v-25q0 -63 -24 -88.5t-87 -25.5h-29q-62 0 -86 25t-24 89zM379 1024v23q0 64 24 90 t86 26h29q62 0 86.5 -26t24.5 -90v-23q0 -64 -24.5 -90.5t-86.5 -26.5h-29q-62 0 -86 26.5t-24 90.5z" />
<glyph unicode="&#xf8;" horiz-adv-x="1060" d="M61 512q0 250 123.5 387t347.5 137q64 0 123 -12l72 174q7 18 26 23.5t72 5.5q57 0 73 -5.5t9 -23.5l-98 -237q195 -134 195 -449q0 -250 -123.5 -387t-348.5 -137q-64 0 -120 12l-72 -174q-7 -18 -26 -23.5t-74 -5.5q-29 0 -45.5 1.5t-26 4.5t-10.5 8.5t2 14.5l96 235 q-195 129 -195 451zM301 512q0 -159 45 -231l229 548q-35 5 -43 5q-125 0 -178 -79t-53 -243zM492 193q18 -3 40 -3q125 0 178.5 79t53.5 243q0 152 -45 229z" />
<glyph unicode="&#xf9;" horiz-adv-x="1064" d="M102 352v637q0 23 21 29t94 6t94 -6t21 -29v-620q0 -51 6.5 -77t23.5 -46q38 -43 170 -43t170 43q18 21 24.5 47t6.5 76v620q0 23 21 29t94 6t94 -6t21 -29v-637q0 -185 -86 -268q-101 -96 -340 -96h-9q-239 0 -340 96q-86 83 -86 268zM264 1337q0 21 43 88q47 72 74 72 q13 0 31 -14l329 -269q12 -11 9 -24t-25 -47q-24 -37 -36 -45.5t-25 0.5l-375 207q-25 14 -25 32z" />
<glyph unicode="&#xfa;" horiz-adv-x="1064" d="M102 352v637q0 23 21 29t94 6t94 -6t21 -29v-620q0 -51 6.5 -77t23.5 -46q38 -43 170 -43t170 43q18 21 24.5 47t6.5 76v620q0 23 21 29t94 6t94 -6t21 -29v-637q0 -185 -86 -268q-101 -96 -340 -96h-9q-239 0 -340 96q-86 83 -86 268zM313 1190q-3 13 9 24l329 269 q17 14 31 14q27 0 74 -72q43 -67 43 -88q0 -18 -25 -32l-375 -207q-13 -9 -25 -0.5t-36 45.5q-22 34 -25 47z" />
<glyph unicode="&#xfb;" horiz-adv-x="1064" d="M102 352v637q0 23 21 29t94 6t94 -6t21 -29v-620q0 -51 6.5 -77t23.5 -46q38 -43 170 -43t170 43q18 21 24.5 47t6.5 76v620q0 23 21 29t94 6t94 -6t21 -29v-637q0 -185 -86 -268q-101 -96 -340 -96h-9q-239 0 -340 96q-86 83 -86 268zM214 1195.5q-8 13.5 3 27.5 l219 252q15 17 33 21.5t63 4.5t64 -4.5t33 -21.5l219 -252q11 -14 3 -27.5t-46 -46.5t-55.5 -41t-30.5 4l-187 209l-186 -209q-13 -12 -30.5 -4t-55.5 41t-46 46.5z" />
<glyph unicode="&#xfc;" horiz-adv-x="1064" d="M102 352v637q0 23 21 29t94 6t94 -6t21 -29v-620q0 -51 6.5 -77t23.5 -46q38 -43 170 -43t170 43q18 21 24.5 47t6.5 76v620q0 23 21 29t94 6t94 -6t21 -29v-637q0 -185 -86 -268q-101 -96 -340 -96h-9q-239 0 -340 96q-86 83 -86 268zM227 1239v25q0 66 25 91t88 25h31 q63 0 86.5 -25t23.5 -91v-25q0 -66 -23.5 -91.5t-86.5 -25.5h-31q-63 0 -88 25.5t-25 91.5zM582 1239v25q0 66 24.5 91t87.5 25h31q63 0 87 -25t24 -91v-25q0 -66 -24 -91.5t-87 -25.5h-31q-63 0 -87.5 25.5t-24.5 91.5z" />
<glyph unicode="&#xfd;" horiz-adv-x="1073" d="M102 352v637q0 23 21 29t94 6t94 -6t21 -29v-620q0 -51 6.5 -77t23.5 -46q38 -43 170 -43t170 43q18 21 24.5 47t6.5 76v620q0 23 21 29t94 6t94 -6t21 -29v-1034q0 -98 -21 -155.5t-65 -98.5q-88 -82 -261 -82q-58 0 -123.5 11t-97.5 26q-17 7 -21.5 22.5t-4.5 63.5 q0 54 5 68t27 14h138q122 0 159 29q35 25 35 96q0 75 6 98q-95 -59 -239 -59q-211 0 -312 96q-86 83 -86 268zM317 1190q-3 13 9 24l329 269q17 14 31 14q27 0 74 -72q43 -67 43 -88q0 -18 -25 -32l-375 -207q-13 -9 -25 -0.5t-36 45.5q-22 34 -25 47z" />
<glyph unicode="&#xfe;" horiz-adv-x="1071" d="M111 -334v1692q0 23 20.5 29t93.5 6t94 -6t21 -29v-184q0 -141 -18 -207q95 69 249 69q200 0 319.5 -137t119.5 -387t-119.5 -387t-319.5 -137q-154 0 -249 69q18 -66 18 -207v-184q0 -23 -21 -29t-94 -6t-93.5 6t-20.5 29zM340 371q0 -103 43 -140q47 -41 154 -41 q129 0 181 77t52 245t-52 245t-181 77q-107 0 -154 -41q-43 -37 -43 -140v-282z" />
<glyph unicode="&#xff;" horiz-adv-x="1073" d="M102 352v637q0 23 21 29t94 6t94 -6t21 -29v-620q0 -51 6.5 -77t23.5 -46q38 -43 170 -43t170 43q18 21 24.5 47t6.5 76v620q0 23 21 29t94 6t94 -6t21 -29v-1034q0 -98 -21 -155.5t-65 -98.5q-88 -82 -261 -82q-58 0 -123.5 11t-97.5 26q-17 7 -21.5 22.5t-4.5 63.5 q0 54 5 68t27 14h138q122 0 159 29q35 25 35 96q0 75 6 98q-95 -59 -239 -59q-211 0 -312 96q-86 83 -86 268zM231 1239v25q0 66 25 91t88 25h31q63 0 86.5 -25t23.5 -91v-25q0 -66 -23.5 -91.5t-86.5 -25.5h-31q-63 0 -88 25.5t-25 91.5zM586 1239v25q0 66 24.5 91t87.5 25 h31q63 0 87 -25t24 -91v-25q0 -66 -24 -91.5t-87 -25.5h-31q-63 0 -87.5 25.5t-24.5 91.5z" />
<glyph unicode="&#x152;" horiz-adv-x="1841" d="M72 696q0 341 147.5 525t409.5 184q167 0 309 -107v52q0 26 20 34.5t91 8.5h659q23 0 30 -21t7 -86q0 -64 -7 -85t-30 -21h-528v-367h438q23 0 30 -19t7 -83t-7 -85.5t-30 -21.5h-438v-391h571q23 0 30 -19.5t7 -84.5t-7 -87t-30 -22h-614q-158 0 -187 102 q-146 -114 -321 -114q-262 0 -409.5 183.5t-147.5 524.5zM328 696q0 -247 79 -366t242 -119q154 0 289 98v-2v776q-137 99 -289 99q-163 0 -242 -119.5t-79 -366.5z" />
<glyph unicode="&#x153;" horiz-adv-x="1708" d="M61 512q0 250 123.5 387t347.5 137q232 0 355 -145q123 145 334 145q208 0 314.5 -137.5t106.5 -376.5q0 -54 -8.5 -74t-31.5 -20h-594q6 -114 79 -172q76 -61 238 -61h209q20 0 26.5 -15.5t6.5 -66.5t-5.5 -66.5t-23.5 -21.5q-113 -37 -260 -37q-255 0 -389 147 q-123 -147 -357 -147q-224 0 -347.5 137t-123.5 387zM301 512q0 -164 53 -243t178 -79t178.5 79t53.5 243t-53.5 243t-178.5 79t-178 -79t-53 -243zM1008 600h411q-3 106 -54 172t-146 66q-94 0 -147 -61.5t-64 -176.5z" />
<glyph unicode="&#x178;" horiz-adv-x="1128" d="M10 1370q-1 9 13.5 14t39 7t70.5 2q81 0 109 -7.5t39 -31.5l294 -629l293 631q11 23 35.5 30t100.5 7q105 0 112 -20q2 -8 -4 -23l-426 -893v-418q0 -24 -24.5 -31.5t-98.5 -7.5q-73 0 -96 7.5t-23 31.5v422l-428 885q-5 15 -6 24zM260 1608v24q0 66 25 91.5t88 25.5h30 q63 0 87 -25.5t24 -91.5v-24q0 -66 -24 -91.5t-87 -25.5h-30q-63 0 -88 25.5t-25 91.5zM614 1608v24q0 66 25 91.5t88 25.5h31q63 0 86.5 -25.5t23.5 -91.5v-24q0 -66 -23.5 -91.5t-86.5 -25.5h-31q-63 0 -88 25.5t-25 91.5z" />
<glyph unicode="&#x2c6;" horiz-adv-x="681" d="M22 1195.5q-8 13.5 3 27.5l219 252q15 17 33 21.5t63 4.5t63 -4.5t33 -21.5l219 -252q11 -14 3 -27.5t-46 -46.5t-55.5 -41t-30.5 4l-186 209l-186 -209q-13 -12 -30.5 -4t-55.5 41t-46 46.5z" />
<glyph unicode="&#x2dc;" horiz-adv-x="681" d="M8 1210q32 85 86.5 132t120.5 47q53 0 131 -34t109 -34q29 0 52 13t50 46q17 20 74 -14q30 -19 38.5 -29t2.5 -26q-32 -85 -86.5 -131.5t-120.5 -46.5q-53 0 -131 33.5t-109 33.5q-29 0 -52 -13t-50 -46q-17 -20 -74 14q-30 19 -38.5 29t-2.5 26z" />
<glyph unicode="&#x2000;" horiz-adv-x="952" />
<glyph unicode="&#x2001;" horiz-adv-x="1905" />
<glyph unicode="&#x2002;" horiz-adv-x="952" />
<glyph unicode="&#x2003;" horiz-adv-x="1905" />
<glyph unicode="&#x2004;" horiz-adv-x="635" />
<glyph unicode="&#x2005;" horiz-adv-x="476" />
<glyph unicode="&#x2006;" horiz-adv-x="317" />
<glyph unicode="&#x2007;" horiz-adv-x="317" />
<glyph unicode="&#x2008;" horiz-adv-x="238" />
<glyph unicode="&#x2009;" horiz-adv-x="381" />
<glyph unicode="&#x200a;" horiz-adv-x="105" />
<glyph unicode="&#x2010;" horiz-adv-x="759" d="M82 510q0 61 5.5 79.5t25.5 18.5h534q20 0 25.5 -18.5t5.5 -79.5t-5.5 -79.5t-25.5 -18.5h-534q-20 0 -25.5 18.5t-5.5 79.5z" />
<glyph unicode="&#x2011;" horiz-adv-x="759" d="M82 510q0 61 5.5 79.5t25.5 18.5h534q20 0 25.5 -18.5t5.5 -79.5t-5.5 -79.5t-25.5 -18.5h-534q-20 0 -25.5 18.5t-5.5 79.5z" />
<glyph unicode="&#x2012;" horiz-adv-x="759" d="M82 510q0 61 5.5 79.5t25.5 18.5h534q20 0 25.5 -18.5t5.5 -79.5t-5.5 -79.5t-25.5 -18.5h-534q-20 0 -25.5 18.5t-5.5 79.5z" />
<glyph unicode="&#x2013;" horiz-adv-x="1024" d="M0 510q0 61 5.5 79.5t25.5 18.5h962q20 0 25.5 -18.5t5.5 -79.5t-5.5 -79.5t-25.5 -18.5h-962q-20 0 -25.5 18.5t-5.5 79.5z" />
<glyph unicode="&#x2014;" horiz-adv-x="2048" d="M0 510q0 61 5.5 79.5t25.5 18.5h1986q20 0 25.5 -18.5t5.5 -79.5t-5.5 -79.5t-25.5 -18.5h-1986q-20 0 -25.5 18.5t-5.5 79.5z" />
<glyph unicode="&#x2018;" horiz-adv-x="436" d="M86 999v13q0 104 28 211t70 157q10 11 25 11.5t45 -7.5q33 -9 40 -16.5t1 -26.5q-37 -113 -43 -196l35 -15q37 -15 50 -38t13 -72v-23q0 -67 -27 -93.5t-92 -26.5h-30q-65 0 -90 26.5t-25 95.5z" />
<glyph unicode="&#x2019;" horiz-adv-x="436" d="M86 1249v23q0 67 27 94t92 27h31q64 0 89 -27t25 -96v-13q0 -104 -28 -211t-70 -157q-10 -11 -25 -11.5t-45 7.5q-33 9 -40 16.5t-1 26.5q37 113 43 196l-34 15q-38 15 -51 38.5t-13 71.5z" />
<glyph unicode="&#x201a;" horiz-adv-x="436" d="M86 61v23q0 67 27 94t92 27h31q64 0 89 -27t25 -96v-12q0 -104 -28 -211.5t-70 -157.5q-10 -11 -25 -11.5t-45 7.5q-33 9 -40 16.5t-1 26.5q37 113 43 197l-34 14q-38 15 -51 38.5t-13 71.5z" />
<glyph unicode="&#x201c;" horiz-adv-x="792" d="M86 999v13q0 104 28 211t70 157q10 11 25 11.5t45 -7.5q33 -9 40 -16.5t1 -26.5q-37 -113 -43 -196l35 -15q37 -15 50 -38t13 -72v-23q0 -67 -27 -93.5t-92 -26.5h-30q-65 0 -90 26.5t-25 95.5zM442 999v13q0 104 28.5 211t70.5 157q10 11 24.5 11.5t44.5 -7.5 q33 -9 40 -16.5t1 -26.5q-37 -113 -43 -196l35 -15q38 -15 51 -38.5t13 -71.5v-23q0 -67 -27 -93.5t-92 -26.5h-31q-65 0 -90 26.5t-25 95.5z" />
<glyph unicode="&#x201d;" horiz-adv-x="792" d="M86 1249v23q0 67 27 94t92 27h31q64 0 89 -27t25 -96v-13q0 -104 -28 -211t-70 -157q-10 -11 -25 -11.5t-45 7.5q-33 9 -40 16.5t-1 26.5q37 113 43 196l-34 15q-38 15 -51 38.5t-13 71.5zM442 1249v23q0 67 27 94t92 27h31q65 0 90 -27t25 -96v-13q0 -104 -28.5 -211 t-70.5 -157q-10 -11 -24.5 -11.5t-44.5 7.5q-33 9 -40 16.5t-1 26.5q37 113 43 196l-35 15q-38 15 -51 38.5t-13 71.5z" />
<glyph unicode="&#x201e;" horiz-adv-x="792" d="M86 61v23q0 67 27 94t92 27h31q64 0 89 -27t25 -96v-12q0 -104 -28 -211.5t-70 -157.5q-10 -11 -25 -11.5t-45 7.5q-33 9 -40 16.5t-1 26.5q37 113 43 197l-34 14q-38 15 -51 38.5t-13 71.5zM442 61v23q0 67 27 94t92 27h31q65 0 90 -27t25 -96v-12q0 -104 -28.5 -211.5 t-70.5 -157.5q-10 -11 -24.5 -11.5t-44.5 7.5q-33 9 -40 16.5t-1 26.5q37 113 43 197l-35 14q-38 15 -51 38.5t-13 71.5z" />
<glyph unicode="&#x2022;" horiz-adv-x="641" d="M86 690v41q0 119 47.5 169t165.5 50h43q118 0 165.5 -50t47.5 -169v-41q0 -119 -47.5 -169t-165.5 -50h-43q-118 0 -165.5 50t-47.5 169z" />
<glyph unicode="&#x2026;" horiz-adv-x="1357" d="M94 119v28q0 67 26 93t91 26h31q65 0 90.5 -26t25.5 -93v-28q0 -67 -25.5 -93t-90.5 -26h-31q-65 0 -91 26t-26 93zM547 119v28q0 67 26 93t91 26h30q65 0 91 -26t26 -93v-28q0 -67 -26 -93t-91 -26h-30q-65 0 -91 26t-26 93zM999 119v28q0 67 26 93t91 26h31 q65 0 91 -26t26 -93v-28q0 -67 -26 -93t-91 -26h-31q-65 0 -91 26t-26 93z" />
<glyph unicode="&#x202f;" horiz-adv-x="381" />
<glyph unicode="&#x2039;" horiz-adv-x="831" d="M102 512q0 48 5.5 66.5t23.5 31.5l440 328q16 12 29 12q22 0 68 -57q51 -68 51 -88q0 -13 -19 -29l-360 -264l360 -264q19 -16 19 -29q0 -20 -51 -88q-46 -57 -68 -57q-13 0 -29 12l-440 328q-18 13 -23.5 31.5t-5.5 66.5z" />
<glyph unicode="&#x203a;" horiz-adv-x="831" d="M113 219q0 14 18 29l361 264l-361 264q-18 15 -18 29q0 20 51 88q46 57 67 57q13 0 29 -12l440 -328q18 -13 23.5 -31.5t5.5 -66.5t-5.5 -66.5t-23.5 -31.5l-440 -328q-16 -12 -29 -12q-21 0 -67 57q-51 68 -51 88z" />
<glyph unicode="&#x205f;" horiz-adv-x="476" />
<glyph unicode="&#x20ac;" horiz-adv-x="1177" d="M78 553q0 55 6 70.5t27 15.5h129v109h-129q-21 0 -27 15.5t-6 70.5t6 70.5t27 15.5h147q45 235 198.5 360t379.5 125q123 0 239 -39q22 -7 26.5 -22.5t4.5 -75.5q0 -58 -7 -73t-30 -15h-164q-178 0 -268.5 -61.5t-118.5 -198.5h305q21 0 27 -15.5t6 -70.5t-6 -70.5 t-27 -15.5h-327v-109h327q21 0 27 -15.5t6 -70.5t-6 -70.5t-27 -15.5h-301q25 -130 113 -192t264 -62h172q23 0 30 -15t7 -73q0 -60 -4.5 -75.5t-26.5 -22.5q-116 -39 -248 -39q-231 0 -376 125t-193 354h-149q-21 0 -27 15.5t-6 70.5z" />
<glyph unicode="&#x2122;" horiz-adv-x="1390" d="M37 1321q0 44 4 58t16 14h506q14 0 18.5 -14t4.5 -58q0 -45 -4.5 -58.5t-18.5 -13.5h-172v-495q0 -15 -14 -20t-66 -5q-51 0 -65.5 5t-14.5 20v495h-174q-12 0 -16 13.5t-4 58.5zM647 754v616q0 14 14 18.5t62 4.5q54 0 71 -6t31 -27l150 -219l149 217q14 21 32 28t67 7 t63 -5t14 -20v-614q0 -15 -13.5 -20t-63.5 -5q-48 0 -61 5t-13 20v393l-102 -143q-9 -12 -23.5 -16.5t-50.5 -4.5q-37 0 -51 4t-23 17l-102 143v-393q0 -15 -13 -20t-61 -5t-62 5.5t-14 19.5z" />
<glyph unicode="&#x25fc;" horiz-adv-x="1024" d="M0 0v1024h1024v-1024h-1024z" />
</font>
</defs>
</svg>
